<svg width="24" height="23" viewBox="0 0 24 23" fill="none" xmlns="http://www.w3.org/2000/svg">
<path d="M12.0575 22.9234C5.85076 22.9095 0.69162 17.7564 0.712957 11.5923C0.734293 5.31039 5.88917 0.162629 12.1162 0.203365C18.3592 0.244101 23.4384 5.37043 23.433 11.6234C23.4277 17.796 18.2525 22.9374 12.0586 22.9234H12.0575ZM21.1319 11.617C21.1319 6.57214 17.1132 2.52533 12.0917 2.51461C7.0488 2.50389 3.00555 6.56357 3.01302 11.6309C3.01942 16.5739 7.07334 20.6015 12.0522 20.6122C17.0513 20.6229 21.1308 16.5814 21.1308 11.617H21.1319Z" fill="url(#paint0_linear_175_10487)"/>
<path d="M17.6138 8.40022C17.6255 8.74755 17.474 9.02198 17.2404 9.25675C15.2102 11.2978 13.1854 13.3432 11.1446 15.3736C10.4682 16.0468 9.67771 16.0393 8.98748 15.3725C8.28551 14.6929 7.59741 13.9982 6.91998 13.2939C6.41004 12.7654 6.39617 12.0954 6.85384 11.628C7.32324 11.1478 8.00174 11.1724 8.55115 11.7031C8.97254 12.1104 9.39607 12.5178 9.78759 12.953C10.018 13.2082 10.1471 13.1642 10.369 12.9391C12.0898 11.1917 13.8255 9.46043 15.5527 7.71842C15.9303 7.33786 16.3421 7.11274 16.8841 7.3325C17.3609 7.52546 17.6031 7.88566 17.6138 8.40129V8.40022Z" fill="url(#paint1_linear_175_10487)"/>
<defs>
<linearGradient id="paint0_linear_175_10487" x1="0.523557" y1="2.93916" x2="26.5026" y2="8.44827" gradientUnits="userSpaceOnUse">
<stop stop-color="#FF0700"/>
<stop offset="1" stop-color="#FD6C1D"/>
</linearGradient>
<linearGradient id="paint1_linear_175_10487" x1="6.43101" y1="8.28528" x2="18.7668" y2="11.6474" gradientUnits="userSpaceOnUse">
<stop stop-color="#FF0700"/>
<stop offset="1" stop-color="#FD6C1D"/>
</linearGradient>
</defs>
</svg>
