<svg width="25" height="24" viewBox="0 0 25 24" fill="none" xmlns="http://www.w3.org/2000/svg">
<g opacity="0.6">
<path d="M11.9999 23.928C9.42126 23.9036 6.84827 23.7946 4.28655 23.5033C2.23228 23.2683 0.653525 21.6313 0.439265 19.5789C-0.0644339 14.7487 -0.0869903 9.91657 0.365963 5.08256C0.418588 4.52436 0.439265 3.95864 0.63285 3.42299C1.24744 1.71079 2.44654 0.650767 4.25459 0.442146C9.42502 -0.151767 14.6011 -0.138611 19.7753 0.42899C21.7976 0.650767 23.3857 2.24268 23.6056 4.25747C24.1676 9.39971 24.1657 14.5419 23.6056 19.6842C23.3876 21.6745 21.7938 23.2702 19.8091 23.4976C17.2154 23.7965 14.6105 23.9036 12.0018 23.9262L11.9999 23.928ZM10.267 16.1339C10.267 17.0398 10.2858 17.9438 10.2595 18.8497C10.2464 19.2914 10.3779 19.4793 10.8421 19.4511C11.3703 19.4192 11.904 19.4211 12.4341 19.4511C12.8926 19.4756 13.0242 19.2951 13.0205 18.8497C13.0017 17.0398 13.0261 15.2298 13.0111 13.4199C13.0073 13.0666 13.1088 12.9594 13.4584 12.9782C13.9865 13.0064 14.5203 12.9782 15.0503 12.9876C15.3942 12.9951 15.5747 12.8429 15.6104 12.5027C15.6743 11.9126 15.7513 11.3262 15.8096 10.736C15.8566 10.2455 15.7382 10.1158 15.2457 10.1102C14.6067 10.1026 13.9658 10.1045 13.3268 10.1102C13.1295 10.1102 13.0017 10.0838 13.0073 9.83575C13.0223 9.25875 12.996 8.67987 13.0261 8.10475C13.0618 7.45446 13.37 7.13871 14.0147 7.0748C14.4169 7.03533 14.8247 7.04097 15.2307 7.03909C15.5765 7.03909 15.7513 6.88874 15.7457 6.52976C15.7382 6.02982 15.7344 5.53176 15.7457 5.03182C15.7551 4.65592 15.5822 4.48677 15.2119 4.48865C14.712 4.49241 14.2139 4.48489 13.714 4.48865C11.6184 4.51308 10.3403 5.76857 10.2764 7.87358C10.2576 8.48253 10.252 9.09148 10.2764 9.69855C10.2896 10.0369 10.1655 10.1308 9.8479 10.112C9.47577 10.0895 9.09987 10.1064 8.72398 10.1083C8.40071 10.1083 8.23156 10.2661 8.23344 10.5969C8.23532 11.2209 8.23907 11.8449 8.23719 12.4689C8.23719 12.8185 8.40635 12.9857 8.75405 12.9839C9.12806 12.982 9.50396 13.0027 9.87798 12.9782C10.1862 12.9576 10.2839 13.0647 10.2783 13.3729C10.2614 14.2939 10.2727 15.2148 10.2727 16.1357L10.267 16.1339Z" fill="white"/>
</g>
</svg>
