<svg width="25" height="25" viewBox="0 0 25 25" fill="none" xmlns="http://www.w3.org/2000/svg">
<g opacity="0.6">
<path d="M24.0094 12.0431C23.9906 14.6274 23.876 17.2079 23.5865 19.7771C23.3572 21.8126 21.739 23.4177 19.7148 23.6338C14.5763 24.1807 9.43786 24.1789 4.29751 23.6338C2.32406 23.4233 0.672003 21.8333 0.455863 19.8523C-0.115496 14.6349 -0.115496 9.4156 0.455863 4.19818C0.668244 2.25481 2.26956 0.644097 4.20353 0.429838C8.9492 -0.0945352 13.7005 -0.137763 18.4556 0.292636C19.0457 0.345261 19.6396 0.371574 20.2204 0.499378C22.0247 0.901585 23.3779 2.41832 23.5865 4.26584C23.8779 6.85199 23.9906 9.44567 24.0094 12.0469V12.0431ZM11.9808 19.5272C12.9788 19.5272 13.9787 19.5347 14.9767 19.5272C17.5609 19.5027 19.4705 17.6157 19.5062 15.0202C19.5344 13.0167 19.5363 11.0113 19.5062 9.00775C19.4667 6.4122 17.5478 4.53273 14.9597 4.51957C12.9938 4.50829 11.0279 4.50641 9.06196 4.51957C6.45326 4.53836 4.55311 6.45543 4.53995 9.07165C4.53056 11.0282 4.53244 12.9866 4.53995 14.9431C4.55123 17.5913 6.44762 19.5065 9.08077 19.5272C10.0487 19.5347 11.0166 19.5272 11.9827 19.5272H11.9808Z" fill="white"/>
<path d="M6.04191 12.0164C6.04191 11.0146 6.03439 10.0129 6.04379 9.01111C6.0607 7.30267 7.30116 6.04342 9.00396 6.03026C11.0169 6.01335 13.0298 6.01335 15.0427 6.03026C16.7023 6.04342 17.9615 7.25756 17.9916 8.92465C18.0292 10.9902 18.0292 13.0576 17.9916 15.1232C17.9596 16.7884 16.6929 17.9987 15.0352 18.01C13.0223 18.0232 11.0094 18.0232 8.99644 18.01C7.30492 17.9987 6.0607 16.7301 6.04379 15.0217C6.03439 14.0199 6.04379 13.0181 6.04379 12.0164H6.04191ZM15.8922 12.0164C15.8866 9.87566 14.1443 8.13339 12.0149 8.13527C9.88919 8.13715 8.13941 9.89634 8.14317 12.0277C8.14693 14.1609 9.89295 15.9069 12.0243 15.9107C14.1462 15.9125 15.8979 14.1496 15.8922 12.0183V12.0164ZM16.8583 8.15219C16.8639 7.62218 16.4542 7.19366 15.9298 7.18426C15.413 7.17674 14.975 7.6015 14.9657 8.12212C14.9563 8.64649 15.3735 9.07501 15.8997 9.08253C16.4316 9.09004 16.8508 8.68408 16.8564 8.15219H16.8583Z" fill="white"/>
<path d="M14.3883 12.0147C14.394 13.3059 13.3415 14.379 12.0484 14.3997C10.7459 14.4204 9.65019 13.3397 9.64455 12.0278C9.63892 10.7404 10.7008 9.65969 11.9864 9.64278C13.2945 9.62586 14.3808 10.699 14.3865 12.0147H14.3883Z" fill="white"/>
</g>
</svg>
