<svg width="25" height="24" viewBox="0 0 25 24" fill="none" xmlns="http://www.w3.org/2000/svg">
<g opacity="0.6">
<path d="M23.6334 4.27087C23.4004 2.20909 21.7803 0.617175 19.7222 0.402915C14.5819 -0.136493 9.44153 -0.132735 4.29929 0.404794C2.26007 0.619053 0.615527 2.25983 0.403147 4.29342C-0.134382 9.41874 -0.134382 14.5403 0.403147 19.6656C0.615527 21.6973 2.25819 23.3419 4.29741 23.5561C9.43777 24.0955 14.5781 24.0993 19.7185 23.558C21.7765 23.3419 23.3985 21.7481 23.6297 19.6901C23.9191 17.1283 24.0319 14.5572 24.0507 11.9805C24.0319 9.40371 23.9191 6.83259 23.6297 4.27087H23.6334ZM18.0589 7.72722C18.0157 8.06177 17.9349 8.39255 17.8634 8.72146C17.2752 11.4749 16.6869 14.2264 16.0986 16.9799C16.093 17.0043 16.0892 17.0306 16.0836 17.055C15.9107 17.7862 15.4746 17.9478 14.86 17.5005C13.9786 16.8577 13.099 16.2112 12.2175 15.5684C12.1574 15.5233 12.0935 15.4819 12.007 15.4237C11.6894 15.7263 11.3736 16.0288 11.0579 16.3296C10.868 16.51 10.6895 16.7055 10.4865 16.869C10.3568 16.9723 10.1933 17.0344 9.97906 17.149C10.0129 16.6209 10.0392 16.1848 10.0674 15.7488C10.0993 15.2846 10.1407 14.8203 10.1632 14.3561C10.1726 14.1569 10.2403 14.0141 10.3925 13.8787C12.1292 12.33 13.8583 10.7738 15.5893 9.21952C15.672 9.14622 15.7396 9.05601 15.828 8.96015C15.5987 8.82483 15.4483 8.9282 15.2998 9.0203C14.3958 9.58414 13.4918 10.1499 12.5878 10.7137C11.2966 11.5219 10.0054 12.3263 8.71793 13.1382C8.57697 13.2266 8.45857 13.2491 8.29693 13.1965C7.41922 12.9146 6.53774 12.6477 5.65815 12.3714C5.42698 12.2981 5.1319 12.2474 5.11874 11.9504C5.10559 11.6478 5.38939 11.5388 5.62244 11.4486C6.95311 10.9298 8.28941 10.4224 9.62384 9.91117C12.0709 8.97331 14.5199 8.03733 16.9688 7.09948C17.0402 7.07316 17.1117 7.04497 17.1831 7.02054C17.745 6.82507 18.136 7.13143 18.0589 7.72722V7.72722Z" fill="white"/>
</g>
</svg>
