<svg width="25" height="25" viewBox="0 0 25 25" fill="none" xmlns="http://www.w3.org/2000/svg">
<g opacity="0.6">
<path d="M24.0424 12.0361C24.0161 14.6524 23.9203 17.263 23.597 19.8604C23.3451 21.8921 21.7288 23.4201 19.7027 23.6362C14.6075 24.1757 9.51599 24.1719 4.42074 23.6362C2.37211 23.4201 0.744489 21.8188 0.522712 19.757C-0.0336122 14.6016 -0.0336122 9.44623 0.522712 4.29084C0.748248 2.20086 2.37399 0.618348 4.46021 0.400329C9.54042 -0.131562 14.6169 -0.135321 19.6952 0.400329C21.7288 0.614589 23.347 2.13508 23.597 4.16491C23.9203 6.77738 24.018 9.40488 24.0424 12.0361V12.0361ZM13.258 9.83528C13.258 9.4124 13.2749 8.98952 13.2543 8.56852C13.2242 7.99904 13.0118 7.77914 12.4423 7.74343C11.6943 7.69832 10.9444 7.67953 10.1964 7.73215C9.98961 7.74719 9.79603 7.79605 9.62876 7.92386C9.34496 8.14188 9.36187 8.28848 9.70394 8.42192C10.0103 8.5422 10.2152 8.74895 10.2396 9.07221C10.296 9.80521 10.3486 10.542 10.2264 11.2731C10.1926 11.4798 10.2076 11.7636 9.95578 11.8294C9.69454 11.8989 9.54794 11.6509 9.38819 11.4855C9.31301 11.4065 9.25098 11.3144 9.18708 11.2261C8.61196 10.4405 8.13458 9.59659 7.78124 8.6888C7.62712 8.29411 7.37527 8.06482 6.94863 8.0573C6.27766 8.0479 5.60668 8.03475 4.93383 8.04226C4.50719 8.0479 4.35684 8.26216 4.52787 8.65309C5.41122 10.681 6.39794 12.6545 7.86017 14.3385C9.07243 15.7349 10.6211 16.3909 12.478 16.2838C13.0268 16.2518 13.1828 16.1052 13.2637 15.5545C13.3012 15.3064 13.337 15.0583 13.399 14.8159C13.5437 14.2539 13.8388 14.1543 14.2617 14.549C14.6714 14.9324 15.0435 15.3572 15.4344 15.7613C15.7502 16.0883 16.1299 16.2931 16.5922 16.3025C17.2312 16.3157 17.8721 16.3213 18.513 16.3213C18.8288 16.3213 19.1652 16.3119 19.3344 15.9868C19.5016 15.6598 19.308 15.3872 19.1314 15.1222C18.6202 14.3629 17.9454 13.7521 17.312 13.1056C16.8948 12.6789 16.8704 12.5023 17.2105 12.0042C17.5733 11.4761 17.9623 10.9667 18.3364 10.4442C18.6916 9.94993 19.0731 9.46878 19.2855 8.88615C19.5054 8.28284 19.3738 8.07421 18.7273 8.0573C18.0244 8.04038 17.3214 8.07234 16.6204 8.04602C16.1317 8.02723 15.8517 8.20014 15.675 8.67941C15.2878 9.72815 14.7278 10.6867 13.9703 11.5174C13.8463 11.6527 13.7298 11.8501 13.5155 11.7881C13.2787 11.7204 13.2881 11.4817 13.2505 11.2825C13.1622 10.7994 13.2317 10.3145 13.2599 9.82964L13.258 9.83528Z" fill="white"/>
</g>
</svg>
