<svg width="25" height="25" viewBox="0 0 25 25" fill="none" xmlns="http://www.w3.org/2000/svg">
<g opacity="0.6">
<path d="M24.1052 12.0571C24.0845 14.6263 23.9718 17.1899 23.6842 19.7441C23.4493 21.8322 21.8292 23.4185 19.7354 23.6384C14.6101 24.1759 9.48479 24.1721 4.35947 23.6346C2.31649 23.4203 0.670069 21.7777 0.455809 19.7403C-0.0835998 14.6 -0.0835998 9.45963 0.45205 4.31739C0.66631 2.27628 2.30333 0.622348 4.34068 0.408088C9.48103 -0.1332 14.6214 -0.136959 19.7636 0.40245C21.8254 0.618589 23.4512 2.21238 23.6842 4.27416C23.9755 6.86032 24.0883 9.45399 24.1071 12.0552L24.1052 12.0571ZM12.0991 6.52577C10.4546 6.53517 8.8157 6.61223 7.18056 6.79266C5.86493 6.93925 5.01917 7.6948 4.81431 8.93713C4.47412 10.9914 4.476 13.0494 4.81431 15.1037C5.01541 16.3197 5.82358 17.0734 7.08471 17.2369C7.59592 17.3027 8.1109 17.344 8.62587 17.3816C11.4413 17.594 14.2549 17.5564 17.0609 17.235C18.3446 17.0884 19.149 16.2859 19.3426 15.0586C19.6546 13.0814 19.6715 11.1042 19.3614 9.1232C19.1396 7.70232 18.3578 6.94489 16.9256 6.7889C15.3224 6.61223 13.7136 6.53893 12.101 6.52577H12.0991Z" fill="white"/>
<path d="M10.2891 14.8921V9.14844C11.8659 10.1164 13.3846 11.0486 14.9652 12.0203C13.3977 12.9826 11.881 13.9148 10.2891 14.8921V14.8921Z" fill="white"/>
</g>
</svg>
