<svg width="41" height="41" viewBox="0 0 41 41" fill="none" xmlns="http://www.w3.org/2000/svg">
<g clip-path="url(#clip0_175_996)">
<path d="M20.7242 23.7653C26.9683 23.8286 32.1765 18.4846 32.0609 12.4031C32.1202 6.07295 27.023 1.14374 21.0023 1.00286C14.8519 0.858814 9.62814 6.17584 9.6172 12.3524C9.60627 18.5131 14.7519 23.7035 20.7242 23.7637V23.7653ZM20.9429 2.30086C26.5902 2.42274 30.7248 6.82168 30.8092 12.4632C30.7498 17.9749 26.2042 22.5005 20.7679 22.4609C15.3379 22.4214 10.8532 17.7913 10.9048 12.2764C10.9564 6.75994 15.4973 2.18372 20.9429 2.30086Z" fill="white"/>
<path d="M32.9859 36.1878C32.9515 34.9642 32.4577 33.9353 31.4655 33.2404C30.953 32.8811 30.7717 32.6262 31.003 31.9535C31.5264 30.4275 30.3185 28.8098 28.7325 28.7734C26.8668 28.7306 25.687 30.3547 26.2417 32.1782C26.3105 32.403 26.6292 32.6594 26.2167 32.919C25.8057 33.1786 25.4354 33.5047 25.0463 33.8023C24.6822 33.329 24.2978 32.851 23.7603 32.6009C23.3056 32.3888 23.554 32.1862 23.6619 31.9503C24.215 30.8913 24.0431 29.5284 23.2368 28.5961C22.3383 27.5561 20.982 27.2205 19.7179 27.7255C18.2334 28.4695 17.3724 29.7801 17.8177 31.1858C18.1427 32.2131 17.924 32.756 17.1177 33.2467C16.9177 33.3686 16.7739 33.8704 16.4848 33.424C16.2317 33.0346 15.3113 33.1818 15.6738 32.2827C16.1489 31.105 15.8004 29.9796 14.8597 29.2657C14.0206 28.6293 12.7752 28.6008 11.9502 29.2008C10.9845 29.9036 10.6266 31.0844 11.0845 32.2795C11.2282 32.6547 11.1907 32.8067 10.8532 33.0172C9.64688 33.7722 9.01716 34.8835 9.01247 36.3382C9.00934 37.2309 9.03278 38.1253 9.00153 39.0165C8.97653 39.7224 9.25623 40.0042 9.96097 40.0026C17.4224 39.9757 24.8822 39.9662 32.3437 39.952C32.4546 39.3979 31.864 39.2476 31.7202 38.8408C29.917 38.8518 28.1137 38.8645 26.3105 38.8692C26.1214 38.8692 25.8276 38.9341 25.8464 38.6207C25.9214 37.3322 25.6057 36.0311 25.9604 34.7521C27.0183 33.5174 28.4465 33.7817 29.7794 33.8688C30.8514 33.9384 31.6655 35.1367 31.7093 36.479C31.7358 37.2657 31.7171 38.054 31.7186 38.8423C31.864 39.2491 32.4531 39.3995 32.3421 39.9535C32.9156 39.9472 32.9937 39.5578 32.9922 39.1004C32.989 38.13 33.0109 37.1597 32.9843 36.1909L32.9859 36.1878ZM13.4159 30.046C14.0597 30.084 14.616 30.6428 14.6191 31.2538C14.6222 31.9709 14.0315 32.5724 13.3471 32.5486C12.6861 32.5249 12.1267 31.9202 12.1517 31.2554C12.1767 30.589 12.783 30.0081 13.4159 30.046ZM15.9442 35.6227C15.7613 36.4759 15.8567 37.394 15.8723 38.2836C15.8801 38.7141 15.7754 38.8898 15.3176 38.8677C14.5706 38.8313 13.819 38.8582 13.0705 38.8582V38.8534C12.3471 38.8534 11.622 38.8281 10.9001 38.8629C10.4469 38.8835 10.2422 38.7822 10.2797 38.2677C10.3251 37.6425 10.2751 37.0109 10.2922 36.3825C10.3344 34.8281 11.3439 33.8118 12.8674 33.8435C13.6518 33.8593 14.4753 33.6266 15.2129 34.1062C15.7598 34.4624 16.1192 34.8075 15.9442 35.6243V35.6227ZM20.0554 28.9364C21.6883 28.3412 23.1493 29.8181 22.5618 31.477C22.9649 31.3551 23.1587 31.7303 23.4462 31.887C23.1603 31.7303 22.9649 31.3551 22.5618 31.477C22.0743 32.2431 21.4242 32.7117 20.4851 32.5107C19.7085 32.3429 19.2006 31.83 19.035 31.0401C18.8365 30.0888 19.2975 29.4303 20.0554 28.9364ZM24.5932 38.4434C24.6072 38.8914 24.3416 38.8724 24.0416 38.8708C22.979 38.8661 21.9164 38.8692 20.8523 38.8692V38.8613C19.8147 38.8613 18.7772 38.8408 17.7412 38.8708C17.288 38.8835 17.0755 38.7869 17.1192 38.2709C17.1958 37.3591 17.0271 36.4363 17.2521 35.5245C17.4083 34.8914 17.7099 34.3706 18.2084 33.959C18.7006 33.5522 19.1553 33.2625 19.8569 33.6329C20.4867 33.9654 21.2273 33.9432 21.8883 33.6108C22.3993 33.3544 22.8149 33.4541 23.2525 33.7659C24.0494 34.3342 24.4807 35.1256 24.565 36.0786C24.6338 36.8605 24.5682 37.6536 24.5947 38.4419L24.5932 38.4434ZM28.5716 32.5471C27.9481 32.5344 27.4012 31.9598 27.3949 31.3108C27.3871 30.6349 27.9731 30.0397 28.6325 30.0524C29.2216 30.065 29.8326 30.6919 29.8388 31.2902C29.8451 31.9202 29.1997 32.5597 28.5731 32.5471H28.5716Z" fill="white"/>
<path d="M25.2334 23.7427C24.7348 23.7269 24.5832 24.0705 24.5832 24.5249C24.5863 26.0987 24.5848 27.6726 24.5801 29.2464C24.5801 29.7008 24.7301 30.0444 25.2287 30.0333C25.7289 30.0207 25.8492 29.6581 25.8446 29.2132C25.8352 28.4532 25.8414 27.6916 25.8414 26.9316H25.8383C25.8383 26.1446 25.8321 25.3577 25.8414 24.5708C25.8461 24.1275 25.7367 23.7585 25.2334 23.7443V23.7427Z" fill="white"/>
<path d="M11.4876 25.6062C11.9315 25.6252 12.1394 25.3402 12.1409 24.9079C12.1441 23.494 12.1394 22.0801 12.1347 20.6646C12.1347 20.2719 11.9581 19.9869 11.5564 19.9695C11.1125 19.9521 10.9124 20.2387 10.9093 20.6725C10.9062 21.3533 10.9093 22.0342 10.9093 22.715H10.903C10.903 23.4481 10.9015 24.1812 10.903 24.9143C10.903 25.3101 11.0875 25.5872 11.4876 25.6046V25.6062Z" fill="white"/>
<path d="M30.1975 19.959C29.6973 19.9543 29.5629 20.3058 29.5645 20.7555C29.5707 22.1155 29.5692 23.4772 29.5645 24.8373C29.5645 25.2949 29.7223 25.6274 30.2194 25.61C30.6695 25.5942 30.8164 25.2727 30.8118 24.8531C30.8071 24.1723 30.8118 23.4931 30.8118 22.8122C30.8118 22.1314 30.8055 21.4521 30.8149 20.7713C30.8211 20.3264 30.6977 19.9654 30.1959 19.9606L30.1975 19.959Z" fill="white"/>
<path d="M15.2666 27.509C15.2759 27.8701 15.4791 28.1091 15.8371 28.1281C16.2356 28.1487 16.4795 27.9096 16.4857 27.5122C16.5029 26.4672 16.4998 25.4222 16.4826 24.3772C16.4763 23.9798 16.2434 23.7359 15.8402 23.7549C15.4791 23.7724 15.2806 24.013 15.2697 24.3724C15.2541 24.868 15.2666 25.3652 15.2666 25.8624H15.2619C15.2619 26.4118 15.2509 26.9596 15.265 27.509H15.2666Z" fill="white"/>
<path d="M20.8884 24.3688C20.393 24.3498 20.2195 24.6775 20.2258 25.1366C20.2305 25.5292 20.2086 25.925 20.2398 26.3144C20.2695 26.6754 20.4961 26.8844 20.8603 26.8812C21.2228 26.878 21.4338 26.6659 21.4745 26.3049C21.4979 26.0976 21.4792 25.887 21.4792 25.6764H21.4854C21.4854 25.4928 21.4823 25.3092 21.4854 25.1255C21.4932 24.7044 21.3369 24.3846 20.8884 24.3672V24.3688Z" fill="white"/>
<path d="M11.4979 28.131C12.1079 28.1437 12.1689 27.6731 12.1454 27.1883C12.1689 26.7304 12.0985 26.2884 11.5448 26.2757C10.9317 26.2614 10.8941 26.7368 10.8926 27.22C10.8926 27.6763 10.9426 28.1215 11.4979 28.1326V28.131Z" fill="white"/>
<path d="M30.1568 28.1349C30.7011 28.1682 30.8262 27.7737 30.82 27.2983C30.8137 26.8183 30.8575 26.2843 30.1881 26.2716C29.636 26.2621 29.5453 26.6868 29.5687 27.1858C29.5468 27.612 29.55 28.0985 30.1568 28.1349Z" fill="white"/>
<path d="M20.7576 21.2254C25.6845 21.2951 29.5457 17.1051 29.5894 12.4766C29.6363 7.56797 25.6876 3.57267 20.8904 3.54102C16.0073 3.53943 12.1414 7.4255 12.1367 12.3405C12.132 17.2554 15.9729 21.1573 20.756 21.2254H20.7576ZM20.8498 4.81052C25.1032 4.97039 28.3003 8.08558 28.2831 12.4085C28.2675 16.7394 25.0219 19.9116 20.8607 19.9052C16.5792 19.8989 13.4415 16.6334 13.4259 12.4196C13.4102 8.09508 16.5917 4.97989 20.8482 4.8121L20.8498 4.81052Z" fill="white"/>
<path d="M18.0285 10.3656C18.4082 10.5366 18.3676 10.8389 18.366 11.1508C18.3644 11.5449 18.366 11.9391 18.366 12.3332C18.366 12.5168 18.4004 12.7099 18.3597 12.8841C18.2457 13.3589 18.6598 13.9383 18.0894 14.3214C17.8269 14.4971 17.68 14.7361 17.7675 15.0558C17.8644 15.4104 18.13 15.5545 18.4801 15.5275C18.827 15.5006 19.0207 15.5988 18.9926 16.0008C18.9614 16.4583 19.1442 16.7939 19.6442 16.7765C20.0974 16.7606 20.2396 16.4377 20.2427 16.0151C20.2427 15.8489 20.1692 15.6241 20.4193 15.5545C20.6458 15.4927 20.7849 15.575 20.9193 15.7919C21.1896 16.2304 21.6068 16.3427 21.9334 15.9169C22.1475 15.6383 22.3834 15.5545 22.6757 15.4531C23.7773 15.0748 24.418 13.7436 23.7835 12.8761C23.3382 12.2683 23.2351 11.7554 23.3288 11.0526C23.4163 10.3925 22.3038 8.93309 21.6834 8.69091C21.4224 8.5896 21.2021 8.66875 21.0459 8.84129C20.5661 9.37473 20.2583 9.49661 20.2302 8.58169C20.2177 8.17804 19.9786 7.94693 19.577 7.96593C19.2129 7.98334 18.977 8.22078 19.0051 8.57852C19.0489 9.11988 18.8192 9.26393 18.3332 9.2291C18.0441 9.20852 17.8472 9.40639 17.7722 9.6834C17.6956 9.96358 17.7722 10.2453 18.0316 10.3625L18.0285 10.3656ZM22.6757 13.6201C22.6897 14.057 22.3506 14.2406 21.949 14.2596C21.6146 14.2755 21.2803 14.2628 20.9459 14.2628V14.266C20.7396 14.266 20.5318 14.247 20.3286 14.2691C19.8364 14.3245 19.588 14.2106 19.5911 13.6122C19.5942 13.0392 19.8473 12.9775 20.2942 12.9996C20.8333 13.0249 21.3756 13.0012 21.9162 13.0091C22.3194 13.0154 22.6616 13.188 22.6757 13.6185V13.6201ZM20.3693 10.4844C20.6771 10.4828 20.9865 10.4796 21.2943 10.4875C21.6959 10.497 22.0397 10.6648 22.0537 11.0954C22.0678 11.5323 21.7318 11.7127 21.3303 11.7364C21.099 11.7507 20.8677 11.7396 20.5708 11.7396C20.3161 11.5687 19.7661 12.0815 19.6208 11.404C19.4645 10.6759 19.6255 10.4875 20.3693 10.4844Z" fill="white"/>
</g>
<defs>
<clipPath id="clip0_175_996">
<rect width="24" height="39" fill="white" transform="translate(9 1)"/>
</clipPath>
</defs>
</svg>
