<svg width="38" height="39" viewBox="0 0 38 39" fill="none" xmlns="http://www.w3.org/2000/svg">
<path d="M20.3744 31.7325C20.3125 32.1175 20.4254 32.4323 20.8849 32.7114C21.7449 33.2339 22.0421 34.2444 21.7367 35.1683C21.4353 36.0785 20.618 36.6917 19.6823 36.7109C18.7384 36.7302 17.8701 36.095 17.5647 35.1615C17.2619 34.2389 17.5922 33.2738 18.4123 32.6881C18.8512 32.3732 19.0934 31.5428 18.9214 31.0286C18.8526 30.8224 18.6999 30.8224 18.5471 30.8045C16.3386 30.5391 14.3531 29.7445 12.64 28.3105C12.4432 28.1455 12.3221 28.228 12.1804 28.371C11.5034 29.0515 10.8347 29.7417 10.137 30.403C9.88659 30.6409 10.0228 30.8622 10.0682 31.0918C10.3104 32.3072 9.59763 33.469 8.44867 33.7151C7.25018 33.9722 6.05719 33.2504 5.79713 32.112C5.51092 30.8567 6.24983 29.7018 7.51437 29.4324C7.66986 29.3994 7.85975 29.3224 7.98359 29.3787C8.89175 29.7898 9.3472 29.1464 9.86182 28.6143C10.3228 28.1386 11.0328 27.7399 11.1938 27.1817C11.363 26.5933 10.565 26.1285 10.2485 25.569C9.50957 24.2628 8.98119 22.8976 8.77066 21.4045C8.73213 21.1295 8.86147 20.6263 8.43767 20.6263C7.90791 20.6263 7.28596 20.2936 6.85527 21.0168C6.26222 22.0135 5.11463 22.3243 4.10878 21.8747C3.12769 21.4375 2.61582 20.372 2.88277 19.3243C3.14971 18.2766 4.1019 17.5851 5.18481 17.6786C5.94298 17.7432 6.53191 18.1185 6.90205 18.7785C7.2777 19.4467 7.88039 19.0919 8.37575 19.1236C8.8656 19.1552 8.72525 18.6547 8.76103 18.3935C9.02797 16.3958 9.80266 14.6181 11.0507 13.0494C11.3039 12.7318 11.3465 12.5544 11.0259 12.2753C10.6131 11.9165 10.2375 11.5109 9.85632 11.1163C9.3417 10.5842 8.91651 10.1333 7.9712 10.3189C6.74932 10.5581 5.69943 9.33446 5.75447 8.02558C5.80951 6.7387 6.90481 5.84778 8.24916 5.99764C9.47104 6.13376 10.3558 7.34915 10.0613 8.57828C9.95402 9.02787 10.0696 9.29047 10.382 9.57919C10.9351 10.0906 11.4717 10.6255 11.9822 11.1795C12.2781 11.5013 12.468 11.5673 12.8587 11.2538C14.404 10.015 16.1694 9.26022 18.1426 8.99074C18.4109 8.95362 18.9159 9.09248 18.8966 8.6319C18.876 8.12045 19.2324 7.50863 18.5279 7.10442C17.6981 6.62871 17.3321 5.84503 17.4766 4.89774C17.6073 4.04257 18.1192 3.44038 18.9434 3.15303C19.963 2.79694 21.0693 3.24515 21.5798 4.19243C22.1082 5.17134 21.8481 6.31799 20.9414 7.00268C20.4625 7.36427 20.2052 8.18232 20.3772 8.70615C20.446 8.91375 20.5974 8.91375 20.7501 8.93162C22.9599 9.19285 24.9441 9.99165 26.6572 11.4243C26.8994 11.6264 27.0205 11.4641 27.165 11.3198C27.8131 10.6736 28.4419 10.0082 29.1134 9.38808C29.3831 9.13923 29.2854 8.90688 29.2317 8.6484C28.9813 7.43714 29.6968 6.27262 30.8444 6.02377C32.0415 5.76392 33.2359 6.48435 33.4987 7.62275C33.7877 8.87526 33.0474 10.037 31.7842 10.3037C31.6067 10.3409 31.3893 10.4179 31.2476 10.3532C30.4633 9.9889 30.0381 10.4839 29.5799 10.9747C29.0818 11.5095 28.285 11.9412 28.113 12.5572C27.9328 13.202 28.8176 13.7162 29.1533 14.3445C29.8399 15.6259 30.3408 16.954 30.5348 18.4004C30.5706 18.6602 30.4247 19.1621 30.9228 19.1277C31.4182 19.0919 32.0112 19.4412 32.3965 18.7785C32.8768 17.9508 33.6418 17.5658 34.5926 17.6978C35.4788 17.8202 36.098 18.344 36.3814 19.2006C36.7213 20.229 36.2589 21.3206 35.3013 21.8169C34.3339 22.3188 33.1313 22.1194 32.5699 21.1735C32.1034 20.3884 31.4705 20.6318 30.8513 20.6071C30.5857 20.5961 30.6064 20.8367 30.5857 21.0071C30.3229 23.1918 29.5276 25.1524 28.1158 26.8504C27.9259 27.0786 28.0181 27.2037 28.1763 27.3618C28.8423 28.0217 29.5193 28.6721 30.1605 29.3554C30.4165 29.629 30.6573 29.4887 30.9091 29.4392C31.9865 29.2248 32.9951 29.761 33.3983 30.7742C33.7959 31.771 33.4134 32.9067 32.4928 33.458C31.5792 34.0052 30.3821 33.8223 29.6941 33.0029C29.2469 32.4708 29.0129 31.8439 29.2262 31.1578C29.3652 30.7096 29.2221 30.447 28.9097 30.1569C28.3236 29.6125 27.7608 29.0419 27.209 28.4617C26.982 28.2239 26.8306 28.162 26.5403 28.3998C24.9262 29.7142 23.0838 30.5034 21.0102 30.7564C20.3634 30.8347 20.3662 30.8567 20.3662 31.7367L20.3744 31.7325ZM26.2417 19.9059C26.2568 16.2803 23.3053 13.2941 19.6933 13.279C16.0648 13.2639 13.0762 16.213 13.0624 19.8234C13.0473 23.4489 15.9988 26.4351 19.6108 26.4503C23.2379 26.4654 26.2279 23.5149 26.2417 19.9059ZM10.8333 19.1428C11.5873 19.1414 11.5777 19.1387 11.7084 18.465C11.7827 18.0869 11.8777 17.7102 11.9946 17.3431C12.2891 16.4151 12.2836 16.4398 11.4566 15.9765C11.1112 15.7826 10.9901 15.8802 10.8691 16.1923C10.598 16.8935 10.4164 17.6153 10.2499 18.3481C10.1068 18.9833 10.2155 19.2775 10.8319 19.1428H10.8333ZM18.9228 11.0916C18.8471 10.8399 19.1512 10.3271 18.51 10.4151C17.6059 10.5402 16.7267 10.7643 15.8901 11.1328C15.7676 11.1864 15.5956 11.2098 15.6506 11.46C15.8075 12.1777 16.3263 12.4815 17.0321 12.2519C17.4202 12.1255 17.8165 11.9646 18.2155 11.9467C18.8127 11.9206 19.048 11.6896 18.9228 11.0916ZM20.3923 11.0957C20.2699 11.6594 20.4625 11.9288 21.079 11.944C21.4546 11.9522 21.833 12.1048 22.199 12.2217C23.1154 12.5145 23.0948 12.5118 23.5557 11.6511C23.7222 11.3404 23.6589 11.2167 23.3659 11.1026C22.6448 10.8193 21.9032 10.6227 21.1436 10.4674C20.5685 10.3491 20.2368 10.3986 20.391 11.0957H20.3923ZM28.3924 19.1373C28.6579 19.0507 29.2083 19.3875 29.1065 18.6946C28.9758 17.8161 28.7625 16.9581 28.4089 16.1415C28.3607 16.0301 28.3428 15.872 28.1722 15.8486C27.6961 15.784 27.0494 16.5677 27.1911 17.0173C27.3425 17.493 27.5393 17.97 27.5805 18.4581C27.6287 19.0163 27.8145 19.2611 28.3937 19.1373H28.3924ZM10.9695 20.5878C10.1178 20.5878 10.1274 20.5864 10.2526 21.3316C10.3737 22.0507 10.5457 22.7546 10.8388 23.4242C10.9323 23.6359 10.9654 24.0937 11.341 23.7926C11.6547 23.5397 12.4294 23.6194 12.1735 22.8811C11.9877 22.3435 11.7538 21.8059 11.7222 21.2464C11.6878 20.6387 11.4181 20.5012 10.9681 20.5892L10.9695 20.5878ZM28.4061 20.6057C27.8571 20.4861 27.6039 20.6675 27.5847 21.2574C27.5709 21.6561 27.4732 22.0919 27.2764 22.4343C26.8499 23.1794 27.2654 23.4503 27.8406 23.7514C28.1791 23.9287 28.3098 23.8696 28.4337 23.5438C28.7006 22.8412 28.8877 22.1222 29.0515 21.3894C29.1905 20.7665 29.112 20.4503 28.4061 20.6057ZM18.9159 28.6157C19.0205 28.0905 18.8801 27.8059 18.2705 27.7921C17.8729 27.7825 17.4394 27.6767 17.0913 27.4869C16.4198 27.1226 16.0896 27.3453 15.7979 27.9764C15.6273 28.3462 15.6025 28.5085 16.0263 28.6611C16.7336 28.9154 17.4532 29.1024 18.1866 29.2688C18.8127 29.4104 19.0494 29.2468 18.9173 28.6157H18.9159ZM20.3937 28.5951C20.2465 29.2798 20.5217 29.4145 21.167 29.2605C21.8302 29.1024 22.5031 28.9814 23.1278 28.7051C23.3397 28.6116 23.8832 28.6212 23.5874 28.1964C23.3521 27.8581 23.4278 27.0195 22.565 27.3728C22.0848 27.5694 21.5702 27.7413 21.0597 27.7866C20.4955 27.8361 20.263 28.03 20.3951 28.5951H20.3937ZM27.4374 14.4174C27.3397 14.2758 27.2682 14.1589 27.1842 14.0517C26.6861 13.4261 26.1357 12.8486 25.4932 12.3716C25.3432 12.2602 25.0859 11.8491 24.9304 12.2602C24.7818 12.6507 24.0277 12.9298 24.6001 13.5045C24.9689 13.8743 25.4257 14.1795 25.7161 14.6016C26.1261 15.1983 26.5128 15.2052 27.0123 14.7748C27.1526 14.6538 27.3865 14.6319 27.4388 14.4174H27.4374ZM27.4443 25.3009C27.4017 25.2459 27.3673 25.1923 27.3246 25.1455C26.7866 24.5584 26.2458 24.5722 25.7009 25.1744C25.4876 25.4109 25.2647 25.6391 25.0294 25.8536C24.2974 26.5231 24.3084 26.5108 24.8189 27.3453C24.9882 27.6203 25.0982 27.689 25.3734 27.4704C26.0724 26.915 26.7068 26.299 27.2475 25.5896C27.3163 25.4989 27.3755 25.4026 27.4443 25.2995V25.3009ZM14.9461 13.2034C14.814 12.971 14.653 12.7455 14.5512 12.4953C14.3696 12.0457 14.1439 12.0608 13.8137 12.3468C13.3142 12.7799 12.823 13.2171 12.3937 13.7217C11.7593 14.4682 11.7648 14.4476 12.5725 14.9371C12.9152 15.1447 13.1284 15.1969 13.394 14.8106C13.7421 14.3046 14.2155 13.9018 14.6929 13.5113C14.7948 13.4275 14.9351 13.3711 14.9461 13.2034ZM14.2127 27.6478C14.2678 27.6065 14.3214 27.5735 14.3682 27.5309C14.9365 27.0181 14.9406 26.4475 14.393 25.9539C14.1398 25.7257 13.8935 25.4879 13.6623 25.2376C12.9908 24.5076 13.0032 24.5172 12.1707 25.0245C11.8983 25.1909 11.8199 25.3009 12.0414 25.5786C12.5987 26.2757 13.2124 26.9108 13.9224 27.4512C14.0132 27.5199 14.1095 27.579 14.2141 27.6492L14.2127 27.6478ZM7.95469 8.88763C8.37299 8.81339 8.66608 8.58103 8.65095 8.12045C8.63719 7.69286 8.34547 7.43989 7.93543 7.44401C7.4841 7.44814 7.20477 7.73548 7.22404 8.19194C7.24193 8.60715 7.51437 8.84226 7.95469 8.88763ZM32.0938 8.1617C32.058 7.76986 31.853 7.47563 31.4278 7.44676C30.9765 7.41789 30.6683 7.66949 30.6531 8.12732C30.638 8.57966 30.9228 8.86288 31.3742 8.87113C31.8021 8.87938 32.0236 8.59478 32.0938 8.1617ZM7.95607 32.2976C8.36611 32.2316 8.65507 32.0144 8.65095 31.5868C8.64682 31.1358 8.36474 30.8499 7.91341 30.8595C7.45658 30.8691 7.19927 31.1771 7.22541 31.6267C7.25018 32.0488 7.53914 32.2632 7.95607 32.2976ZM31.3576 32.2976C31.7883 32.2509 32.069 32.0213 32.0787 31.6019C32.0883 31.1551 31.8269 30.8499 31.3645 30.8581C30.9146 30.8664 30.638 31.1537 30.6518 31.6088C30.6641 32.0378 30.96 32.2426 31.3576 32.2976ZM18.942 5.21947C18.9558 5.66355 19.2117 5.93715 19.6562 5.93715C20.0607 5.93715 20.3414 5.69655 20.3497 5.25384C20.3579 4.78638 20.0951 4.5169 19.6438 4.51416C19.2269 4.51141 18.9833 4.76851 18.9407 5.21947H18.942ZM4.97428 20.5699C5.4545 20.5589 5.7187 20.2936 5.71457 19.8509C5.71044 19.4453 5.46414 19.1689 5.02382 19.1662C4.55735 19.1634 4.28904 19.4288 4.29179 19.8797C4.29454 20.2963 4.5546 20.5369 4.97566 20.5713L4.97428 20.5699ZM34.3243 20.5699C34.7467 20.5383 35.0068 20.2963 35.0109 19.8811C35.015 19.4315 34.7481 19.1634 34.2803 19.1662C33.8386 19.1676 33.5923 19.4453 33.5868 19.8495C33.5813 20.2908 33.8441 20.5603 34.3229 20.5713L34.3243 20.5699ZM20.3566 34.5263C20.3442 34.0492 20.0772 33.7866 19.6342 33.7921C19.2282 33.7976 18.9517 34.0437 18.9503 34.485C18.9489 34.9511 19.2159 35.2192 19.6672 35.2137C20.0827 35.2096 20.3249 34.9497 20.3566 34.5263Z" fill="url(#paint0_linear_175_1177)"/>
<path d="M23.3176 18.6499C22.7204 19.4143 23.1401 20.3259 23.2928 21.2869C23.4772 22.4459 22.4067 23.4743 21.1201 23.5238C20.6055 23.5445 20.3028 23.5953 20.3592 24.2168C20.4005 24.6677 20.139 24.9551 19.6588 24.9592C19.1813 24.9619 18.9103 24.6842 18.9474 24.2291C18.9956 23.6269 18.7383 23.4867 18.1948 23.5335C17.7187 23.5747 17.2343 23.5568 16.7555 23.5293C16.3124 23.5046 15.9959 23.2475 16 22.7993C16.0028 22.3236 16.3083 22.017 16.8022 22.0678C17.3623 22.127 17.4875 21.907 17.4682 21.3859C17.4297 20.3135 17.4421 19.2383 17.4641 18.1646C17.4724 17.7879 17.3733 17.6201 16.9715 17.6627C16.4459 17.7191 16.0166 17.5225 16.0055 16.9561C15.9932 16.3429 16.4569 16.1765 16.9976 16.182C17.2949 16.1861 17.5948 16.1586 17.8893 16.1875C18.5388 16.2494 19.0603 16.2301 18.9722 15.3241C18.9378 14.9707 19.2598 14.7728 19.6258 14.7659C20.0207 14.7576 20.3688 14.9474 20.3344 15.3392C20.2656 16.1188 20.6605 16.1738 21.2907 16.2205C22.5044 16.3112 23.3836 17.3506 23.3176 18.6485V18.6499ZM20.223 17.6696C20.1088 17.6696 19.9946 17.6696 19.8804 17.6696C18.8566 17.6696 18.8346 17.7012 18.9378 18.7461C18.9612 18.9785 18.997 19.1449 19.279 19.1407C19.8955 19.1325 20.5133 19.1627 21.1256 19.1229C21.5591 19.094 21.8673 18.8286 21.8315 18.3626C21.7971 17.9143 21.4958 17.6847 21.0444 17.6737C20.7706 17.6669 20.4968 17.6737 20.223 17.671V17.6696ZM20.1707 22.0596C20.4445 22.0596 20.7183 22.0596 20.9922 22.0596C21.471 22.0596 21.8067 21.8382 21.8301 21.3529C21.8549 20.8497 21.5054 20.6215 21.0417 20.5981C20.5642 20.5733 20.0799 20.627 19.6052 20.5788C19.0424 20.5225 18.9309 20.7576 18.9227 21.2745C18.913 21.8616 19.0259 22.1888 19.6918 22.0651C19.846 22.0362 20.0111 22.061 20.1707 22.0596Z" fill="url(#paint1_linear_175_1177)"/>
<defs>
<linearGradient id="paint0_linear_175_1177" x1="2.53183" y1="7.08709" x2="41.0428" y2="15.2538" gradientUnits="userSpaceOnUse">
<stop stop-color="#FF0700"/>
<stop offset="1" stop-color="#FD6C1D"/>
</linearGradient>
<linearGradient id="paint1_linear_175_1177" x1="15.939" y1="15.9932" x2="24.4883" y2="17.2953" gradientUnits="userSpaceOnUse">
<stop stop-color="#FF0700"/>
<stop offset="1" stop-color="#FD6C1D"/>
</linearGradient>
</defs>
</svg>
