<svg width="41" height="41" viewBox="0 0 41 41" fill="none" xmlns="http://www.w3.org/2000/svg">
<path d="M22.7593 24.6561C26.6364 19.9112 32.5518 20.6811 35.5194 23.8226C38.6086 27.0916 38.8095 32.7521 34.3609 36.3097C35.2223 36.3097 35.955 36.3083 36.6877 36.3097C37.4318 36.3125 37.8504 36.5814 37.7967 37.0753C37.7217 37.7489 37.2196 37.838 36.6566 37.838C33.3439 37.8324 30.0311 37.8352 26.7184 37.8352C19.3404 37.8352 11.9625 37.8352 4.58448 37.8352C3.37509 37.8352 3.18696 37.6512 3.18696 36.4654C3.18555 28.31 3.18555 20.1546 3.18555 11.9979C3.18555 10.1242 3.91259 9.33317 5.7684 9.23977C6.16022 9.21996 6.21538 9.06713 6.23236 8.73033C6.31581 6.96708 7.08529 6.23829 8.83077 6.23122C9.79404 6.22697 10.7573 6.21848 11.7206 6.23546C12.0827 6.24254 12.2284 6.12084 12.2142 5.75007C12.193 5.21091 12.2057 4.66892 12.2128 4.12834C12.2185 3.61606 12.442 3.22124 12.9809 3.22266C13.5127 3.22408 13.7504 3.59059 13.7376 4.12409C13.7249 4.64062 13.7603 5.15997 13.7277 5.67507C13.7009 6.10386 13.8437 6.25103 14.2794 6.23829C15.2893 6.20999 16.2993 6.2199 17.3106 6.23263C18.8355 6.25103 19.7252 7.09444 19.7563 8.62136C19.7662 9.11807 19.902 9.24402 20.39 9.2426C21.8441 9.23977 22.755 10.1766 22.7578 11.6285C22.7635 15.9291 22.7593 20.2296 22.7593 24.6561ZM4.71178 23.759C4.71178 27.7072 4.72027 31.6539 4.70188 35.6021C4.69905 36.1116 4.76836 36.3564 5.37093 36.3253C6.44877 36.2701 7.53227 36.2828 8.61153 36.321C9.10943 36.338 9.24239 36.1908 9.23532 35.6955C9.20703 33.6521 9.21269 31.6072 9.22825 29.5624C9.23815 28.2492 10.1887 27.3053 11.4999 27.284C12.3925 27.2699 13.285 27.2798 14.1775 27.2812C15.8693 27.284 16.7265 28.1345 16.7335 29.8369C16.7406 31.811 16.7463 33.7851 16.7265 35.7578C16.7222 36.188 16.8523 36.3267 17.2852 36.3154C18.3885 36.2885 19.4946 36.2729 20.5965 36.3196C21.1496 36.3437 21.2472 36.1484 21.2457 35.6418C21.2302 27.6987 21.2358 19.757 21.233 11.8139C21.233 10.9011 21.0803 10.7525 20.1566 10.7511C15.3883 10.7483 10.6187 10.7483 5.85045 10.7511C4.88576 10.7511 4.7132 10.9308 4.7132 11.9115C4.71178 15.8597 4.7132 19.8065 4.7132 23.7547L4.71178 23.759ZM22.7607 29.4718C22.7366 33.2021 25.7566 36.2842 29.4611 36.3083C33.1883 36.3338 36.2705 33.3096 36.2959 29.6063C36.32 25.876 33.3014 22.7953 29.5969 22.7698C25.8669 22.7457 22.7861 25.7656 22.7621 29.4718H22.7607ZM15.2483 32.8327C15.2483 31.8011 15.2526 30.7695 15.2469 29.7379C15.2427 29.1124 14.9484 28.7911 14.2921 28.8053C13.4024 28.8251 12.5113 28.8152 11.6201 28.8081C11.043 28.8039 10.7488 29.0643 10.7488 29.653C10.7517 31.7162 10.7573 33.7795 10.7417 35.8427C10.7389 36.2177 10.8676 36.321 11.2297 36.3154C12.4009 36.297 13.5736 36.2927 14.7448 36.3168C15.1578 36.3253 15.2625 36.1696 15.2554 35.7861C15.2356 34.8012 15.2483 33.8163 15.2483 32.8313V32.8327ZM12.9752 9.22845C14.5736 9.22845 16.1706 9.21996 17.7675 9.23553C18.1226 9.23836 18.2612 9.15487 18.2555 8.76995C18.2456 7.98314 17.9981 7.71851 17.1169 7.7171C14.3685 7.71144 11.6187 7.71285 8.87038 7.71851C8.63982 7.71851 8.39087 7.73266 8.18294 7.81757C7.65958 8.02984 7.68079 8.51523 7.72181 8.95958C7.76425 9.42798 8.16314 9.2143 8.39228 9.21713C9.91852 9.23836 11.4462 9.22845 12.9738 9.22845H12.9752ZM24.6462 36.2729C24.277 35.9347 23.9757 35.6786 23.6985 35.3998C23.4071 35.1083 23.1369 34.7969 22.837 34.4729C22.5612 36.3239 22.5782 36.3437 24.3307 36.3069C24.3986 36.3055 24.468 36.2927 24.6462 36.2715V36.2729Z" fill="url(#paint0_linear_175_1048)"/>
<path d="M13.7215 22.0156C13.8687 22.6373 13.6238 22.8172 12.9981 22.7917C12.4474 22.769 12.1629 22.7322 12.187 22.0467C12.2096 21.4207 12.3498 21.2154 13.0052 21.2168C13.6408 21.2196 13.8602 21.4094 13.7215 22.0142V22.0156Z" fill="url(#paint1_linear_175_1048)"/>
<path d="M18.9161 31.7979C18.3385 31.9452 18.2224 31.6393 18.2267 31.0445C18.2309 30.4652 18.33 30.2372 18.9826 30.2443C19.6352 30.2514 19.8334 30.4412 19.7867 31.0771C19.7329 31.7965 19.7725 31.7994 18.9161 31.7994V31.7979Z" fill="url(#paint2_linear_175_1048)"/>
<path d="M9.97558 13.7261C9.35412 13.8734 9.17292 13.6284 9.19981 13.0024C9.22246 12.4515 9.25927 12.1668 9.94443 12.1909C10.5701 12.2135 10.7754 12.3537 10.774 13.0095C10.7712 13.6454 10.5815 13.8649 9.97558 13.7261Z" fill="url(#paint3_linear_175_1048)"/>
<path d="M13.7387 13.0767C13.8859 13.6546 13.5801 13.7707 12.9855 13.7665C12.4051 13.7622 12.1786 13.6631 12.1857 13.0102C12.1928 12.3573 12.3825 12.159 13.0181 12.2057C13.7372 12.2596 13.7401 12.2199 13.7401 13.0767H13.7387Z" fill="url(#paint4_linear_175_1048)"/>
<path d="M18.9911 27.3023C19.5828 27.172 19.8051 27.3604 19.798 28.0118C19.7923 28.6506 19.621 28.8276 18.9769 28.8389C18.3158 28.8503 18.2351 28.6053 18.2252 28.0345C18.2139 27.4283 18.3512 27.1437 18.9911 27.3037V27.3023Z" fill="url(#paint5_linear_175_1048)"/>
<path d="M9.95485 18.2829C10.623 18.12 10.7603 18.3933 10.7759 19.0038C10.7929 19.6878 10.531 19.7742 9.93362 19.8082C9.22014 19.8493 9.22722 19.5094 9.2074 18.9839C9.18333 18.3693 9.34047 18.0804 9.95627 18.2829H9.95485Z" fill="url(#paint6_linear_175_1048)"/>
<path d="M12.9596 19.764C12.2192 19.9581 12.2418 19.4992 12.1895 18.9497C12.1187 18.2033 12.5391 18.2968 13.0261 18.2387C13.7311 18.1552 13.7282 18.5107 13.758 19.0417C13.7934 19.6819 13.581 19.9028 12.961 19.7655L12.9596 19.764Z" fill="url(#paint7_linear_175_1048)"/>
<path d="M18.2645 12.9694C18.1102 12.3392 18.3891 12.2089 18.9964 12.1905C19.6844 12.1706 19.7622 12.4397 19.799 13.0346C19.8429 13.7512 19.4918 13.7229 18.9737 13.7625C18.314 13.8135 18.1399 13.56 18.2645 12.968V12.9694Z" fill="url(#paint8_linear_175_1048)"/>
<path d="M18.2434 18.9347C18.1189 18.3965 18.3496 18.2025 18.9824 18.2337C19.526 18.2606 19.8233 18.2846 19.7964 18.9758C19.7723 19.5961 19.6449 19.851 18.9796 19.7958C18.2477 19.7363 18.2434 19.7816 18.2434 18.9347Z" fill="url(#paint9_linear_175_1048)"/>
<path d="M19.749 22.0397C19.9515 22.7974 19.4843 22.7351 18.9775 22.7903C18.2244 22.8724 18.2739 22.4731 18.2258 21.9363C18.1593 21.1913 18.5726 21.2636 19.0653 21.231C19.732 21.1871 19.9062 21.4703 19.749 22.0397Z" fill="url(#paint10_linear_175_1048)"/>
<path d="M9.23822 22.0039C9.08958 21.3822 9.34864 21.2307 9.96444 21.2193C10.6411 21.2052 10.7402 21.453 10.7728 22.0592C10.8096 22.7659 10.4797 22.7574 9.9517 22.7928C9.30193 22.8367 9.10515 22.6058 9.23681 22.0054L9.23822 22.0039Z" fill="url(#paint11_linear_175_1048)"/>
<path d="M9.93598 16.7264C9.2225 16.9176 9.23524 16.4871 9.20127 15.9531C9.16021 15.3101 9.43626 15.2521 9.97137 15.2393C10.5773 15.2237 10.7698 15.3781 10.774 16.0169C10.7783 16.691 10.5192 16.8425 9.93598 16.7278V16.7264Z" fill="url(#paint12_linear_175_1048)"/>
<path d="M15.9779 22.7517C15.2771 22.9387 15.2389 22.5421 15.229 21.9898C15.2191 21.4218 15.3564 21.2236 15.9651 21.2207C16.588 21.2179 16.7635 21.3893 16.7551 22.011C16.748 22.6073 16.6361 22.9203 15.9779 22.7531V22.7517Z" fill="url(#paint13_linear_175_1048)"/>
<path d="M6.9538 22.7418C6.14689 22.9627 6.25023 22.4415 6.20776 21.9557C6.15538 21.3383 6.41586 21.249 6.96937 21.2179C7.65878 21.1811 7.70974 21.4813 7.7239 22.0393C7.74089 22.6724 7.55969 22.933 6.95238 22.7404L6.9538 22.7418Z" fill="url(#paint14_linear_175_1048)"/>
<path d="M10.0163 24.3021C10.7127 24.1251 10.7311 24.5259 10.768 25.0796C10.8189 25.826 10.3956 25.741 9.90583 25.7878C9.25181 25.8487 9.23199 25.5343 9.19802 25.0131C9.15272 24.3304 9.43868 24.1931 10.0163 24.3035V24.3021Z" fill="url(#paint15_linear_175_1048)"/>
<path d="M13.709 25.0341C13.9284 25.8329 13.4187 25.7437 12.9261 25.7819C12.3131 25.8301 12.2112 25.5822 12.1857 25.0214C12.156 24.3444 12.4363 24.2722 13.004 24.2623C13.6297 24.2509 13.9057 24.4166 13.7075 25.0327L13.709 25.0341Z" fill="url(#paint16_linear_175_1048)"/>
<path d="M18.2662 25.0081C18.0723 24.2886 18.5012 24.2872 19.0363 24.2674C19.6167 24.2461 19.788 24.4147 19.7979 25.0095C19.8078 25.6468 19.6068 25.7913 19.0009 25.7927C18.388 25.7927 18.1077 25.6496 18.2676 25.0067L18.2662 25.0081Z" fill="url(#paint17_linear_175_1048)"/>
<path d="M16.708 18.956C16.8453 19.5976 16.6358 19.8015 15.9902 19.81C15.3221 19.8199 15.2329 19.5678 15.2286 18.9928C15.2244 18.4277 15.3419 18.2026 15.9577 18.238C16.5013 18.2691 16.9387 18.2592 16.708 18.956Z" fill="url(#paint18_linear_175_1048)"/>
<path d="M7.6918 27.9904C7.79938 28.5611 7.67622 28.8472 6.98964 28.8373C6.36535 28.8288 6.1799 28.6645 6.20539 28.0428C6.22662 27.5216 6.25493 27.2143 6.91037 27.2653C7.42707 27.3063 7.88715 27.261 7.6918 27.989V27.9904Z" fill="url(#paint19_linear_175_1048)"/>
<path d="M16.7152 13.038C16.9106 13.7674 16.4505 13.7221 15.9338 13.7618C15.2769 13.8142 15.2486 13.5054 15.2288 12.9842C15.2033 12.3639 15.3902 12.1996 16.0131 12.1897C16.6996 12.1798 16.8228 12.4659 16.7152 13.0366V13.038Z" fill="url(#paint20_linear_175_1048)"/>
<path d="M6.24318 18.9571C6.04499 18.2193 6.52206 18.283 7.03027 18.2391C7.6942 18.181 7.70552 18.5068 7.731 19.0195C7.76215 19.6497 7.55688 19.797 6.9425 19.8083C6.24884 19.8211 6.14125 19.5208 6.24459 18.9571H6.24318Z" fill="url(#paint21_linear_175_1048)"/>
<path d="M18.9953 16.716C18.2479 16.9157 18.2606 16.4851 18.2267 15.9512C18.1856 15.3082 18.4617 15.2501 18.9968 15.2374C19.6027 15.2218 19.8037 15.3748 19.7966 16.0149C19.7895 16.6664 19.5814 16.8831 18.9939 16.716H18.9953Z" fill="url(#paint22_linear_175_1048)"/>
<path d="M6.94492 30.2905C7.59752 30.1319 7.74475 30.4335 7.72918 31.0397C7.71502 31.5623 7.68105 31.8625 7.02561 31.8186C6.49616 31.7832 6.13093 31.7974 6.20738 31.0822C6.26117 30.5709 6.20454 30.0965 6.94633 30.2905H6.94492Z" fill="url(#paint23_linear_175_1048)"/>
<path d="M13.7205 16.0369C13.9243 16.7804 13.4458 16.7266 12.9376 16.7578C12.3388 16.796 12.2072 16.5793 12.1887 16.0043C12.1675 15.3443 12.4167 15.2523 12.9985 15.2339C13.6454 15.2126 13.8592 15.4236 13.7219 16.0369H13.7205Z" fill="url(#paint24_linear_175_1048)"/>
<path d="M6.93463 13.7262C6.19851 13.9273 6.23673 13.4628 6.20842 12.9459C6.17586 12.3524 6.37829 12.2094 6.95728 12.1924C7.60989 12.174 7.71748 12.4091 7.73163 12.9983C7.7472 13.637 7.55468 13.8678 6.93322 13.7248L6.93463 13.7262Z" fill="url(#paint25_linear_175_1048)"/>
<path d="M18.2737 34.0597C18.0628 33.2878 18.5271 33.326 19.0438 33.2963C19.637 33.2637 19.78 33.4663 19.7969 34.0455C19.8153 34.6984 19.5832 34.8216 18.99 34.8174C18.3898 34.8131 18.0614 34.7012 18.2737 34.0597Z" fill="url(#paint26_linear_175_1048)"/>
<path d="M7.69185 16.0068C7.86315 16.6838 7.49933 16.7489 6.93166 16.7645C6.31728 16.7829 6.22385 16.5535 6.2012 15.9997C6.1743 15.3425 6.42062 15.2377 7.00386 15.2363C7.59842 15.2363 7.83342 15.4119 7.69185 16.0054V16.0068Z" fill="url(#paint27_linear_175_1048)"/>
<path d="M7.69393 25.0121C7.82275 25.5814 7.63306 25.8038 7.01584 25.7896C6.45525 25.7769 6.18628 25.7131 6.19761 25.039C6.20893 24.413 6.37739 24.2459 6.99036 24.2629C7.55803 24.277 7.84682 24.3988 7.69393 25.0121Z" fill="url(#paint28_linear_175_1048)"/>
<path d="M15.2647 24.9631C15.0864 24.2606 15.5323 24.3144 16.0178 24.2663C16.7242 24.1969 16.7186 24.5623 16.7526 25.0905C16.795 25.7548 16.468 25.7562 15.9626 25.7902C15.2746 25.8355 15.1557 25.5239 15.2647 24.9631Z" fill="url(#paint29_linear_175_1048)"/>
<path d="M15.9623 16.7273C15.2474 16.9114 15.2658 16.4723 15.229 15.9455C15.1837 15.2912 15.4951 15.2742 16.0104 15.2374C16.704 15.1878 16.7295 15.5149 16.7522 16.0588C16.7777 16.6947 16.5172 16.8434 15.9623 16.7287V16.7273Z" fill="url(#paint30_linear_175_1048)"/>
<path d="M6.93493 33.3272C7.54648 33.187 7.7475 33.4178 7.73193 34.0537C7.71919 34.6131 7.60877 34.8242 7.00005 34.8171C6.41115 34.81 6.16483 34.7009 6.20305 34.0495C6.2342 33.5169 6.28091 33.1586 6.93352 33.3272H6.93493Z" fill="url(#paint31_linear_175_1048)"/>
<path d="M33.3038 28.2152C32.7041 29.0275 33.1199 30.0138 33.2642 31.0454C33.4325 32.2511 32.3278 33.2601 30.9925 33.3068C30.4904 33.3238 30.1962 33.3818 30.2556 33.9875C30.3009 34.4432 30.059 34.7616 29.5625 34.7771C29.0321 34.7927 28.7562 34.4814 28.8015 33.9847C28.8581 33.3719 28.5624 33.2813 28.0589 33.3153C27.5907 33.3464 27.1197 33.3309 26.6501 33.3167C26.1366 33.3012 25.7589 33.0592 25.7801 32.5172C25.7985 32.0247 26.1437 31.7431 26.643 31.8068C27.206 31.8775 27.2979 31.6313 27.2823 31.1346C27.2484 30.0082 27.2583 28.8803 27.2795 27.7524C27.2866 27.3831 27.1734 27.243 26.8028 27.2798C26.2342 27.3364 25.7674 27.1355 25.7816 26.5114C25.7957 25.8859 26.2964 25.743 26.8438 25.7571C27.1494 25.7642 27.4563 25.7387 27.759 25.7628C28.3927 25.8137 28.9161 25.8067 28.8255 24.9024C28.7859 24.5005 29.1353 24.2939 29.5427 24.301C29.9939 24.3094 30.2839 24.567 30.2471 25.0029C30.1934 25.6411 30.4437 25.767 31.042 25.7826C32.3377 25.8166 33.2883 26.8114 33.3038 28.2152ZM30.0519 31.7969C30.3334 31.7969 30.6149 31.7969 30.8949 31.7969C31.3872 31.7997 31.738 31.5761 31.762 31.078C31.7889 30.519 31.3943 30.3053 30.8907 30.2898C30.3999 30.2742 29.9048 30.3152 29.4154 30.2756C28.9175 30.236 28.7676 30.4256 28.7874 30.9124C28.8298 31.9922 28.7166 31.7742 29.6997 31.7983C29.8171 31.8011 29.9345 31.7983 30.0505 31.7983L30.0519 31.7969ZM30.158 27.2911V27.284C30.018 27.284 29.8765 27.284 29.7365 27.284C28.7746 27.284 28.6063 27.5076 28.7973 28.4869C28.834 28.6751 28.8934 28.7954 29.0985 28.794C29.7775 28.7869 30.4579 28.8081 31.134 28.7586C31.523 28.7303 31.7762 28.4459 31.7691 28.0411C31.762 27.6095 31.4961 27.3463 31.0718 27.2996C30.7705 27.2656 30.4635 27.2925 30.1594 27.2925L30.158 27.2911Z" fill="url(#paint32_linear_175_1048)"/>
<defs>
<linearGradient id="paint0_linear_175_1048" x1="2.89708" y1="7.39113" x2="42.478" y2="15.7848" gradientUnits="userSpaceOnUse">
<stop stop-color="#FF0700"/>
<stop offset="1" stop-color="#FD6C1D"/>
</linearGradient>
<linearGradient id="paint1_linear_175_1048" x1="12.1724" y1="21.4067" x2="13.9761" y2="21.7893" gradientUnits="userSpaceOnUse">
<stop stop-color="#FF0700"/>
<stop offset="1" stop-color="#FD6C1D"/>
</linearGradient>
<linearGradient id="paint2_linear_175_1048" x1="18.2135" y1="30.4357" x2="20.0072" y2="30.8103" gradientUnits="userSpaceOnUse">
<stop stop-color="#FF0700"/>
<stop offset="1" stop-color="#FD6C1D"/>
</linearGradient>
<linearGradient id="paint3_linear_175_1048" x1="9.18413" y1="12.3795" x2="10.9872" y2="12.7615" gradientUnits="userSpaceOnUse">
<stop stop-color="#FF0700"/>
<stop offset="1" stop-color="#FD6C1D"/>
</linearGradient>
<linearGradient id="paint4_linear_175_1048" x1="12.1723" y1="12.388" x2="13.9878" y2="12.7785" gradientUnits="userSpaceOnUse">
<stop stop-color="#FF0700"/>
<stop offset="1" stop-color="#FD6C1D"/>
</linearGradient>
<linearGradient id="paint5_linear_175_1048" x1="18.2115" y1="27.45" x2="20.0113" y2="27.8302" gradientUnits="userSpaceOnUse">
<stop stop-color="#FF0700"/>
<stop offset="1" stop-color="#FD6C1D"/>
</linearGradient>
<linearGradient id="paint6_linear_175_1048" x1="9.19198" y1="18.4106" x2="10.9911" y2="18.787" gradientUnits="userSpaceOnUse">
<stop stop-color="#FF0700"/>
<stop offset="1" stop-color="#FD6C1D"/>
</linearGradient>
<linearGradient id="paint7_linear_175_1048" x1="12.1685" y1="18.4172" x2="13.9754" y2="18.7997" gradientUnits="userSpaceOnUse">
<stop stop-color="#FF0700"/>
<stop offset="1" stop-color="#FD6C1D"/>
</linearGradient>
<linearGradient id="paint8_linear_175_1048" x1="18.2095" y1="12.3797" x2="20.0161" y2="12.7629" gradientUnits="userSpaceOnUse">
<stop stop-color="#FF0700"/>
<stop offset="1" stop-color="#FD6C1D"/>
</linearGradient>
<linearGradient id="paint9_linear_175_1048" x1="18.1977" y1="18.4199" x2="20.0111" y2="18.8079" gradientUnits="userSpaceOnUse">
<stop stop-color="#FF0700"/>
<stop offset="1" stop-color="#FD6C1D"/>
</linearGradient>
<linearGradient id="paint10_linear_175_1048" x1="18.2055" y1="21.4162" x2="20.016" y2="21.8025" gradientUnits="userSpaceOnUse">
<stop stop-color="#FF0700"/>
<stop offset="1" stop-color="#FD6C1D"/>
</linearGradient>
<linearGradient id="paint11_linear_175_1048" x1="9.18411" y1="21.4089" x2="10.9889" y2="21.7914" gradientUnits="userSpaceOnUse">
<stop stop-color="#FF0700"/>
<stop offset="1" stop-color="#FD6C1D"/>
</linearGradient>
<linearGradient id="paint12_linear_175_1048" x1="9.18413" y1="15.423" x2="10.9828" y2="15.815" gradientUnits="userSpaceOnUse">
<stop stop-color="#FF0700"/>
<stop offset="1" stop-color="#FD6C1D"/>
</linearGradient>
<linearGradient id="paint13_linear_175_1048" x1="15.2158" y1="21.4107" x2="16.9664" y2="21.7699" gradientUnits="userSpaceOnUse">
<stop stop-color="#FF0700"/>
<stop offset="1" stop-color="#FD6C1D"/>
</linearGradient>
<linearGradient id="paint14_linear_175_1048" x1="6.18847" y1="21.406" x2="7.93678" y2="21.7619" gradientUnits="userSpaceOnUse">
<stop stop-color="#FF0700"/>
<stop offset="1" stop-color="#FD6C1D"/>
</linearGradient>
<linearGradient id="paint15_linear_175_1048" x1="9.1802" y1="24.4447" x2="10.981" y2="24.8373" gradientUnits="userSpaceOnUse">
<stop stop-color="#FF0700"/>
<stop offset="1" stop-color="#FD6C1D"/>
</linearGradient>
<linearGradient id="paint16_linear_175_1048" x1="12.1704" y1="24.4455" x2="13.9789" y2="24.8444" gradientUnits="userSpaceOnUse">
<stop stop-color="#FF0700"/>
<stop offset="1" stop-color="#FD6C1D"/>
</linearGradient>
<linearGradient id="paint17_linear_175_1048" x1="18.2056" y1="24.4495" x2="20.0062" y2="24.8445" gradientUnits="userSpaceOnUse">
<stop stop-color="#FF0700"/>
<stop offset="1" stop-color="#FD6C1D"/>
</linearGradient>
<linearGradient id="paint18_linear_175_1048" x1="15.2157" y1="18.4242" x2="16.9826" y2="18.7909" gradientUnits="userSpaceOnUse">
<stop stop-color="#FF0700"/>
<stop offset="1" stop-color="#FD6C1D"/>
</linearGradient>
<linearGradient id="paint19_linear_175_1048" x1="6.19034" y1="27.4498" x2="7.9491" y2="27.8125" gradientUnits="userSpaceOnUse">
<stop stop-color="#FF0700"/>
<stop offset="1" stop-color="#FD6C1D"/>
</linearGradient>
<linearGradient id="paint20_linear_175_1048" x1="15.2138" y1="12.3795" x2="16.9725" y2="12.7422" gradientUnits="userSpaceOnUse">
<stop stop-color="#FF0700"/>
<stop offset="1" stop-color="#FD6C1D"/>
</linearGradient>
<linearGradient id="paint21_linear_175_1048" x1="6.18446" y1="18.4222" x2="7.94541" y2="18.7863" gradientUnits="userSpaceOnUse">
<stop stop-color="#FF0700"/>
<stop offset="1" stop-color="#FD6C1D"/>
</linearGradient>
<linearGradient id="paint22_linear_175_1048" x1="18.2095" y1="15.421" x2="20.0053" y2="15.8119" gradientUnits="userSpaceOnUse">
<stop stop-color="#FF0700"/>
<stop offset="1" stop-color="#FD6C1D"/>
</linearGradient>
<linearGradient id="paint23_linear_175_1048" x1="6.18449" y1="30.436" x2="7.94151" y2="30.7982" gradientUnits="userSpaceOnUse">
<stop stop-color="#FF0700"/>
<stop offset="1" stop-color="#FD6C1D"/>
</linearGradient>
<linearGradient id="paint24_linear_175_1048" x1="12.1743" y1="15.4166" x2="13.9769" y2="15.8117" gradientUnits="userSpaceOnUse">
<stop stop-color="#FF0700"/>
<stop offset="1" stop-color="#FD6C1D"/>
</linearGradient>
<linearGradient id="paint25_linear_175_1048" x1="6.19235" y1="12.382" x2="7.94404" y2="12.7405" gradientUnits="userSpaceOnUse">
<stop stop-color="#FF0700"/>
<stop offset="1" stop-color="#FD6C1D"/>
</linearGradient>
<linearGradient id="paint26_linear_175_1048" x1="18.1957" y1="33.4766" x2="20.0059" y2="33.8766" gradientUnits="userSpaceOnUse">
<stop stop-color="#FF0700"/>
<stop offset="1" stop-color="#FD6C1D"/>
</linearGradient>
<linearGradient id="paint27_linear_175_1048" x1="6.18643" y1="15.4205" x2="7.94126" y2="15.7941" gradientUnits="userSpaceOnUse">
<stop stop-color="#FF0700"/>
<stop offset="1" stop-color="#FD6C1D"/>
</linearGradient>
<linearGradient id="paint28_linear_175_1048" x1="6.18446" y1="24.4458" x2="7.94133" y2="24.8205" gradientUnits="userSpaceOnUse">
<stop stop-color="#FF0700"/>
<stop offset="1" stop-color="#FD6C1D"/>
</linearGradient>
<linearGradient id="paint29_linear_175_1048" x1="15.2118" y1="24.4429" x2="16.9637" y2="24.8131" gradientUnits="userSpaceOnUse">
<stop stop-color="#FF0700"/>
<stop offset="1" stop-color="#FD6C1D"/>
</linearGradient>
<linearGradient id="paint30_linear_175_1048" x1="15.2119" y1="15.4176" x2="16.9613" y2="15.7866" gradientUnits="userSpaceOnUse">
<stop stop-color="#FF0700"/>
<stop offset="1" stop-color="#FD6C1D"/>
</linearGradient>
<linearGradient id="paint31_linear_175_1048" x1="6.18644" y1="33.4697" x2="7.93981" y2="33.8418" gradientUnits="userSpaceOnUse">
<stop stop-color="#FF0700"/>
<stop offset="1" stop-color="#FD6C1D"/>
</linearGradient>
<linearGradient id="paint32_linear_175_1048" x1="25.7166" y1="25.5624" x2="34.5035" y2="26.9007" gradientUnits="userSpaceOnUse">
<stop stop-color="#FF0700"/>
<stop offset="1" stop-color="#FD6C1D"/>
</linearGradient>
</defs>
</svg>
