<svg width="41" height="41" viewBox="0 0 41 41" fill="none" xmlns="http://www.w3.org/2000/svg">
<path d="M20.3272 37.8337C15.0663 37.8337 9.80541 37.8337 4.54452 37.8337C4.33261 37.8337 4.1193 37.8493 3.91022 37.8265C3.21799 37.7511 2.93122 37.2614 3.22788 36.6208C3.59377 35.8294 4.18004 35.0891 4.33261 34.2635C4.48377 33.4493 3.69831 32.7688 3.45815 31.9617C2.09207 27.3809 4.77903 22.5096 9.33075 21.3907C14.0195 20.2377 18.6871 23.2513 19.5191 27.9873C19.6251 28.5894 19.7028 29.2044 19.6604 29.8236C19.6533 29.9332 19.6124 30.077 19.7409 30.1368C19.8992 30.2108 20.0334 30.0898 20.0955 29.9802C20.3032 29.6129 20.5066 29.2371 20.6663 28.8471C21.131 27.7083 21.949 27.0933 23.1794 27.2172C24.1132 27.3111 24.6331 26.9638 25.0188 26.0983C25.6941 24.5837 26.6632 24.2207 28.227 24.7417C28.939 24.978 29.6454 25.2299 30.3602 25.4577C31.164 25.7139 31.6669 26.2634 31.9311 27.0506C32.2009 27.8549 32.4708 28.6606 32.718 29.4734C32.8776 30.0001 33.1828 30.2734 33.7464 30.2165C35.3188 30.0556 36.1989 30.8257 36.942 32.2037C37.7896 33.7738 37.7401 35.3753 37.702 37.0223C37.6879 37.5974 37.2895 37.8351 36.7456 37.8351C35.7595 37.8365 34.7735 37.8351 33.786 37.8351C29.3007 37.8351 24.8139 37.8351 20.3286 37.8351L20.3272 37.8337ZM21.6905 36.2963C22.1708 36.2963 22.5932 36.2963 23.0156 36.2963C27.1958 36.2963 31.3759 36.2991 35.5561 36.2877C35.7708 36.2877 36.083 36.4614 36.1904 36.06C36.4362 35.1461 36.1678 34.7703 35.2467 34.7703C34.6124 34.7703 33.9781 34.7703 33.3452 34.7703C32.5937 34.7703 31.8421 34.7632 31.0906 34.7703C30.565 34.776 30.1836 34.5596 30.1893 34.013C30.1949 33.4649 30.5876 33.2628 31.1089 33.2728C31.7192 33.2841 32.3295 33.2742 32.9412 33.2742C33.6928 33.2742 34.4443 33.2813 35.1959 33.2671C35.3484 33.2642 35.6084 33.3824 35.6027 33.0493C35.5928 32.4329 34.8596 31.7154 34.1957 31.7553C32.2772 31.8706 31.4621 31.0862 31.1654 29.499C30.808 27.5901 29.8036 26.5538 27.9162 26.2008C26.8835 26.0072 26.7126 25.9332 26.286 26.9353C25.7181 28.2663 24.7588 28.8542 23.3461 28.7389C23.2995 28.7346 23.2515 28.7432 23.2049 28.7389C22.596 28.6592 22.2343 28.9353 22.0323 29.5076C21.9066 29.862 21.7258 30.1966 21.5548 30.5325C21.2483 31.1361 20.7538 31.6286 20.1082 31.6528C19.3609 31.6813 19.214 32.1325 19.012 32.6621C18.4639 34.1027 17.4863 35.2272 16.1936 36.2963C16.9848 36.2963 17.6233 36.2151 18.2336 36.3134C19.5078 36.5169 20.2735 36.087 20.6917 34.8173C21.0562 33.7098 21.9433 33.1902 23.1116 33.2813C23.9833 33.3496 24.6727 33.2044 25.0145 32.2492C25.1756 31.798 25.6319 31.7382 26.0274 31.9532C26.399 32.1539 26.4951 32.5026 26.3368 32.9268C25.8636 34.1966 25.0809 34.7575 23.7233 34.7703C22.257 34.7845 22.2513 34.7888 21.6919 36.2949L21.6905 36.2963ZM11.317 36.2963C15.0437 36.3176 18.122 33.2685 18.1418 29.5346C18.1629 25.778 15.1384 22.679 11.4314 22.6577C7.70332 22.6363 4.62646 25.684 4.60668 29.4193C4.5869 33.176 7.61008 36.2749 11.317 36.2963ZM5.5433 35.4052C5.38649 35.7226 5.18165 35.9304 5.19577 36.2564H6.50111C6.15076 35.9461 5.87952 35.7041 5.5433 35.4052Z" fill="url(#paint0_linear_175_1088)"/>
<path d="M12.8887 17.514C12.8887 15.3332 13.6289 13.5197 15.036 11.9752C15.3538 11.6264 15.6703 11.2705 16.0305 10.9702C16.5363 10.5474 16.8018 10.1659 16.111 9.67622C15.9655 9.57372 15.8356 9.36304 15.8977 9.17656C16.1096 8.54168 15.6321 8.25413 15.2648 7.98367C14.8806 7.70039 14.5444 7.37868 14.2321 7.03134C13.4142 6.12314 13.4269 4.81921 14.2392 3.94376C15.0586 3.05976 16.4105 2.97435 17.3528 3.77863C17.7639 4.12881 18.1227 4.54163 18.5126 4.91886C18.8489 5.24484 19.0918 5.70463 19.7219 5.51673C19.9832 5.43844 20.2361 5.72883 20.4028 5.95659C20.6783 6.33382 20.8803 6.24699 21.16 5.94378C21.7209 5.33737 22.3057 4.75516 22.9019 4.18575C23.7862 3.34019 24.8373 3.3587 25.7188 4.2128C25.8714 4.36084 26.0197 4.51174 26.168 4.66405C27.1386 5.67047 27.0736 6.95732 25.9505 7.78011C25.3727 8.20289 24.9362 8.75805 24.405 9.21785C24.1451 9.44276 24.1564 9.62639 24.4092 9.84704C24.7582 10.1502 25.0252 10.4762 24.8557 11.0143C24.7794 11.2606 25.0887 11.3972 25.247 11.5567C29.0966 15.4443 32.949 19.329 36.8071 23.2066C37.4612 23.8643 37.8553 24.5917 37.6307 25.554C37.2365 27.2508 35.3026 27.9056 33.9817 26.7839C33.7853 26.6159 33.6059 26.4266 33.4237 26.243C29.6518 22.4436 25.8799 18.6457 22.1122 14.8435C21.8424 14.5717 21.6036 14.3055 21.153 14.4222C20.8803 14.4919 20.6402 14.314 20.4876 14.099C20.1273 13.588 19.8632 13.783 19.5156 14.1389C17.8854 15.8101 16.2339 17.4599 14.5867 19.1155C14.2901 19.4144 14.0146 19.7674 13.5032 19.5682C13.0102 19.376 13.0045 18.9176 12.9424 18.5091C12.8901 18.1603 12.9014 17.8016 12.8887 17.5169V17.514ZM35.3817 25.7875C35.7306 25.8173 35.9708 25.6536 36.1149 25.349C36.2985 24.9604 36.1092 24.6643 35.8493 24.401C31.9177 20.4379 27.9805 16.4806 24.0603 12.5076C23.539 11.9794 23.3949 12.5617 23.1463 12.7695C22.9075 12.9688 22.5445 13.1396 22.9824 13.5795C26.9295 17.5268 30.854 21.4956 34.7869 25.4572C34.9522 25.6238 35.1175 25.8003 35.3831 25.7875H35.3817ZM23.022 10.6143C22.9372 10.5232 22.8426 10.4193 22.7451 10.3182C22.2167 9.7844 21.7025 9.2335 21.1544 8.72104C19.3617 7.047 19.914 7.08971 18.0959 8.7367C17.7385 9.05984 17.7837 9.25343 18.1058 9.56234C19.0014 10.425 19.866 11.3232 20.7447 12.2044C20.8591 12.3197 20.9764 12.4449 21.1162 12.5175C21.2278 12.5759 23.0375 10.7695 23.022 10.6129V10.6143ZM14.4328 17.134C15.7663 15.7831 16.9516 14.5802 18.1397 13.3802C19.017 12.4933 19.0099 12.5033 18.0563 11.6463C17.8331 11.4456 17.6975 11.4129 17.4856 11.6435C16.8965 12.2869 16.2452 12.8777 15.7042 13.5581C14.9328 14.5261 14.4878 15.645 14.4328 17.134ZM25.3529 6.1388C25.1495 5.69467 24.8189 5.39431 24.4502 5.15658C24.1677 4.97295 23.9826 5.25054 23.8046 5.4242C23.4359 5.78577 23.0756 6.15446 22.7126 6.5203C21.8226 7.41711 21.8268 7.41142 22.7818 8.20858C22.9443 8.34381 23.0248 8.41641 23.2339 8.25271C23.9176 7.7189 24.5138 7.09398 25.1184 6.47902C25.2117 6.38365 25.2738 6.25553 25.3529 6.13738V6.1388ZM15.1688 5.58933C15.1857 5.642 15.1928 5.80713 15.2775 5.89823C15.8214 6.47902 16.3837 7.04131 16.9361 7.61213C17.083 7.76445 17.1762 7.65768 17.2765 7.55804C17.4912 7.34167 17.7017 7.12245 17.9193 6.90892C18.0479 6.78223 18.127 6.67262 17.956 6.50749C17.4192 5.98649 16.9007 5.44556 16.3568 4.93025C16.1379 4.72384 15.8553 4.68683 15.5756 4.82633C15.3016 4.96299 15.1532 5.18648 15.1688 5.58933Z" fill="url(#paint1_linear_175_1088)"/>
<path d="M12.0977 15.7312C12.1218 16.0857 12.0243 16.3249 11.7784 16.4644C11.4944 16.6253 11.1695 16.6552 10.9236 16.4217C10.3585 15.8892 9.80886 15.3397 9.28327 14.7688C9.03319 14.4969 9.05155 14.1566 9.29174 13.8619C9.52487 13.5757 9.86255 13.4248 10.1621 13.6426C10.8841 14.1694 11.493 14.8257 12.0497 15.5276C12.102 15.5931 12.0921 15.7084 12.0963 15.7326L12.0977 15.7312Z" fill="url(#paint2_linear_175_1088)"/>
<path d="M17.0092 21.1175C16.6122 21.1175 16.2151 21.1375 15.8194 21.1119C15.3729 21.082 15.1539 20.8029 15.1623 20.36C15.1708 19.9485 15.387 19.6737 15.7982 19.6609C16.6136 19.6367 17.4317 19.6353 18.2485 19.6638C18.6597 19.678 18.8688 19.9628 18.8703 20.3743C18.8731 20.82 18.6456 21.0891 18.199 21.1147C17.8034 21.1375 17.4063 21.119 17.0092 21.119V21.1175Z" fill="url(#paint3_linear_175_1088)"/>
<path d="M12.1006 18.9013C12.0822 19.3839 11.6357 19.7555 11.185 19.5775C10.5803 19.3383 9.99961 19.0308 9.43445 18.7062C9.12079 18.5254 9.03178 18.1866 9.17165 17.8406C9.32425 17.4648 9.64214 17.2768 10.0194 17.3978C10.6849 17.6114 11.3065 17.9374 11.8872 18.3304C12.0723 18.4557 12.1119 18.6792 12.1006 18.9013Z" fill="url(#paint4_linear_175_1088)"/>
<path d="M15.132 28.2302C14.5146 29.0003 14.9342 29.9199 15.108 30.8936C15.3255 32.1093 14.2151 33.221 12.8618 33.2666C12.3122 33.2851 12.0438 33.379 12.0933 33.9997C12.1314 34.4709 11.8517 34.757 11.3615 34.7541C10.8685 34.7499 10.6 34.4509 10.6438 33.984C10.7046 33.3321 10.391 33.2381 9.85837 33.2794C9.39218 33.3164 8.91893 33.2993 8.44991 33.2794C7.96536 33.2595 7.61218 33.0075 7.61924 32.5036C7.62631 32.0096 7.95123 31.6993 8.45556 31.7605C9.06161 31.8345 9.1379 31.5498 9.12236 31.0388C9.09128 29.9512 9.10117 28.8622 9.11953 27.7733C9.1266 27.3846 9.08704 27.1341 8.60107 27.1953C8.05859 27.2636 7.6249 27.0359 7.62348 26.4522C7.62207 25.8188 8.1038 25.6565 8.65758 25.6636C9.10399 25.6693 9.55182 25.6366 9.99541 25.6722C10.4771 25.7106 10.6509 25.5526 10.6438 25.0444C10.6354 24.4138 10.9801 24.1205 11.4971 24.2031C11.9576 24.2771 12.1427 24.5988 12.1003 25.0159C12.0438 25.5754 12.2854 25.6665 12.7855 25.6793C14.1911 25.7163 15.2167 26.7839 15.1306 28.2274L15.132 28.2302ZM11.9124 27.2053C10.5393 27.2024 10.4884 27.2537 10.6368 28.3612C10.665 28.5761 10.7116 28.7256 10.9589 28.7242C11.6144 28.7185 12.2727 28.7427 12.9253 28.6985C13.3435 28.6701 13.6303 28.3911 13.6091 27.9469C13.5865 27.48 13.2898 27.2295 12.8265 27.2096C12.5227 27.1953 12.2176 27.2067 11.9124 27.2067V27.2053ZM11.9082 31.7477C12.1893 31.7477 12.4705 31.7477 12.7516 31.7477C13.2446 31.7448 13.5865 31.5128 13.6063 31.0089C13.6275 30.4879 13.2658 30.253 12.7897 30.2331C12.2049 30.2089 11.6186 30.2302 11.0323 30.2231C10.778 30.2203 10.6693 30.3114 10.6325 30.5847C10.4941 31.6438 10.5732 31.7477 11.6257 31.7477C11.7189 31.7477 11.8135 31.7477 11.9068 31.7477H11.9082Z" fill="url(#paint5_linear_175_1088)"/>
<defs>
<linearGradient id="paint0_linear_175_1088" x1="2.81308" y1="23.1549" x2="37.474" y2="38.3964" gradientUnits="userSpaceOnUse">
<stop stop-color="#FF0700"/>
<stop offset="1" stop-color="#FD6C1D"/>
</linearGradient>
<linearGradient id="paint1_linear_175_1088" x1="12.682" y1="6.12874" x2="40.9749" y2="12.3001" gradientUnits="userSpaceOnUse">
<stop stop-color="#FF0700"/>
<stop offset="1" stop-color="#FD6C1D"/>
</linearGradient>
<linearGradient id="paint2_linear_175_1088" x1="9.07853" y1="13.9066" x2="12.5115" y2="14.6217" gradientUnits="userSpaceOnUse">
<stop stop-color="#FF0700"/>
<stop offset="1" stop-color="#FD6C1D"/>
</linearGradient>
<linearGradient id="paint3_linear_175_1088" x1="15.1312" y1="19.8212" x2="18.5901" y2="21.6547" gradientUnits="userSpaceOnUse">
<stop stop-color="#FF0700"/>
<stop offset="1" stop-color="#FD6C1D"/>
</linearGradient>
<linearGradient id="paint4_linear_175_1088" x1="9.08246" y1="17.6337" x2="12.3994" y2="18.5652" gradientUnits="userSpaceOnUse">
<stop stop-color="#FF0700"/>
<stop offset="1" stop-color="#FD6C1D"/>
</linearGradient>
<linearGradient id="paint5_linear_175_1088" x1="7.5565" y1="25.4617" x2="16.3377" y2="26.7866" gradientUnits="userSpaceOnUse">
<stop stop-color="#FF0700"/>
<stop offset="1" stop-color="#FD6C1D"/>
</linearGradient>
</defs>
</svg>
