<svg width="41" height="40" viewBox="0 0 41 40" fill="none" xmlns="http://www.w3.org/2000/svg">
<g clip-path="url(#clip0_175_1101)">
<path d="M31.0052 23.2383C31.3441 22.2294 31.9387 21.5597 32.9918 21.4124C33.3002 21.3679 33.2224 21.1067 33.2224 20.9177C33.2224 20.398 33.3696 19.9533 33.9586 19.9478C34.5477 19.9422 34.7366 20.3758 34.6922 20.901C34.6588 21.2901 34.8394 21.3846 35.1895 21.468C36.2481 21.7181 36.8788 22.5268 36.901 23.6162C36.9205 24.5861 36.9177 25.556 36.901 26.526C36.8816 27.6293 36.2842 28.4352 35.2117 28.6853C34.7616 28.7909 34.6672 28.9855 34.6894 29.3829C34.7172 29.8692 34.4782 30.2111 33.9781 30.2194C33.478 30.2277 33.1974 29.8915 33.2418 29.4107C33.2863 28.8938 33.0473 28.7687 32.6056 28.6548C31.672 28.4102 31.1052 27.6459 31.0357 26.6816C30.9635 25.6533 30.4838 24.7714 29.5965 24.0359C29.4493 24.3166 29.3159 24.5972 29.1547 24.8585C28.9575 25.1781 28.6852 25.4643 28.3323 25.5727C27.7183 25.7589 27.1848 25.9118 27.2765 26.7622C27.3126 27.0873 26.9403 27.293 26.5708 27.2735C26.1651 27.2541 25.8678 27.004 25.8956 26.626C25.9429 25.9674 25.6178 25.7812 25.0565 25.6478C24.4703 25.5088 24.123 25.0058 23.7562 24.4305C23.0977 25.6172 22.0114 26.4815 22.1642 28.0295C22.2698 29.1133 21.539 29.9026 20.4721 30.1722C20.1248 30.2583 19.9553 30.3695 19.9803 30.7558C20.0165 31.2782 19.8275 31.7007 19.2274 31.6923C18.6717 31.684 18.4717 31.2838 18.5078 30.7891C18.5383 30.3695 18.3577 30.2528 17.9799 30.161C16.9824 29.9165 16.2378 29.1355 16.3323 28.1295C16.449 26.8539 15.7349 26.1952 14.8402 25.4866C14.5124 26.4648 13.9261 27.1429 12.8703 27.2819C12.6175 27.3152 12.6258 27.5237 12.6286 27.7071C12.6369 28.2351 12.5369 28.7409 11.8979 28.7493C11.2644 28.7576 11.1116 28.2796 11.1477 27.7377C11.1672 27.4264 11.0477 27.318 10.7365 27.243C9.55288 26.9539 8.95274 26.1702 8.93607 24.9502C8.92496 24.072 8.92496 23.1966 8.93607 22.3184C8.94996 21.0817 9.51954 20.3007 10.7032 20.0006C11.0838 19.9033 11.1699 19.7421 11.1505 19.392C11.1227 18.8945 11.3172 18.5026 11.8729 18.4915C12.4313 18.4804 12.6286 18.8695 12.6231 19.367C12.6231 19.6921 12.6536 19.8922 13.0537 19.9978C14.2568 20.3091 14.9125 21.0678 14.8041 22.3045C14.7069 23.4161 15.4459 23.8969 16.0516 24.5278C16.2017 24.6834 16.3211 24.6778 16.3989 24.4527C16.7074 23.5634 17.3325 23.0521 18.2605 22.8992C18.5606 22.8492 18.5022 22.6046 18.5022 22.4073C18.5022 21.8904 18.6411 21.4485 19.2385 21.4402C19.8359 21.4318 20.0137 21.8626 19.9887 22.3823C19.972 22.7102 20.0554 22.8909 20.4166 22.9437C21.0445 23.0354 21.5279 23.3911 21.8502 23.9303C22.0253 24.2221 22.1447 24.2248 22.3253 23.9442C22.7115 23.3411 23.1089 22.7464 23.5117 22.1544C23.7285 21.8376 23.6507 21.4846 23.6534 21.1456C23.6673 19.5643 24.0563 18.989 25.5455 18.5082C25.8512 18.4082 25.8678 18.2331 25.8651 17.9941C25.8595 17.4827 25.9929 17.0269 26.5902 17.0158C27.2348 17.0047 27.3849 17.4799 27.3432 18.0191C27.3126 18.4026 27.5321 18.4554 27.8322 18.5304C28.8686 18.7889 29.6326 19.5782 29.5215 20.6009C29.3798 21.8987 30.1939 22.499 31.0107 23.2466L31.0052 23.2383ZM25.1343 22.1238C25.1343 22.2155 25.1343 22.3073 25.1343 22.399C25.076 24.5389 25.2066 24.3444 27.2487 24.336C27.7766 24.336 28.06 24.0553 28.0656 23.5245C28.0739 22.6046 28.0684 21.6875 28.0656 20.7676C28.0656 20.2424 27.7877 19.8811 27.2737 19.945C26.5486 20.0367 25.6067 19.4698 25.1621 20.5425C25.1121 20.662 25.1371 20.8149 25.1343 20.9538C25.1316 21.3457 25.1343 21.7348 25.1343 22.1266V22.1238ZM13.3538 23.6134C13.3816 21.254 13.4649 21.3985 11.2811 21.4096C10.717 21.4124 10.4253 21.6875 10.4225 22.2572C10.4225 23.1577 10.4225 24.0581 10.4225 24.9585C10.4225 25.5338 10.7365 25.8673 11.2755 25.8062C11.984 25.7256 12.9065 26.2536 13.326 25.2031C13.3732 25.0808 13.351 24.928 13.351 24.7918C13.351 24.3999 13.351 24.0081 13.351 23.6134H13.3538ZM20.7083 26.5482C20.7083 26.0896 20.7166 25.6283 20.7083 25.1697C20.6916 24.5028 20.2721 24.3471 19.6886 24.3416C18.1244 24.3277 17.8215 24.4249 17.7937 25.1169C17.7576 26.0813 17.7687 27.0484 17.7937 28.0128C17.8076 28.5547 18.1744 28.8243 18.6689 28.7493C19.3663 28.6436 20.2943 29.2134 20.6916 28.1323C20.7361 28.01 20.7139 27.8599 20.7139 27.721C20.7139 27.3291 20.7139 26.94 20.7139 26.5482H20.7083ZM35.4284 25.1142H35.4312C35.4312 24.6528 35.4312 24.1915 35.4312 23.7302C35.4312 23.1604 35.12 22.8242 34.5727 22.8881C33.8614 22.9715 32.9417 22.4434 32.5222 23.4967C32.4666 23.6385 32.4944 23.8163 32.4916 23.9775C32.4889 24.4388 32.4916 24.9002 32.4916 25.3615C32.4916 27.343 32.5083 27.3569 34.506 27.2791C34.5532 27.2791 34.5977 27.2791 34.6449 27.2763C35.1478 27.2624 35.4118 26.9956 35.4257 26.4982C35.4396 26.0368 35.4257 25.5755 35.4257 25.1142H35.4284Z" fill="url(#paint0_linear_175_1101)"/>
<path d="M20.591 36.1265C15.6065 36.1265 10.6192 36.1265 5.63473 36.1265C3.87875 36.1237 3.05078 35.3011 3.05078 33.5391C3.05078 23.5176 3.05078 13.4989 3.05078 3.4802C3.05078 2.41024 3.19804 2.26295 4.23995 2.25739C4.58726 2.25739 4.93178 2.24905 5.27909 2.27129C5.71252 2.29908 5.97369 2.55476 5.97925 2.97996C5.98481 3.40517 5.72363 3.74144 5.30131 3.69142C4.48167 3.59693 4.47056 4.06382 4.50946 4.64187C4.53169 4.96425 4.53724 5.28941 4.50946 5.61179C4.44833 6.26766 4.465 6.79013 5.37911 6.7151C5.75975 6.68453 5.99592 7.0347 5.97925 7.42655C5.96258 7.85176 5.69307 8.16302 5.27075 8.11855C4.5039 8.03518 4.45389 8.44649 4.50668 9.02176C4.53447 9.31913 4.52335 9.62205 4.50668 9.9222C4.4789 10.5697 4.35387 11.2367 5.40411 11.1422C5.77643 11.1089 6.00148 11.4841 5.97369 11.8787C5.94591 12.2733 5.67918 12.5818 5.30409 12.5373C4.49557 12.4401 4.45389 12.8847 4.5039 13.4767C4.52891 13.7991 4.53169 14.1242 4.5039 14.4466C4.44556 15.0969 4.45111 15.6249 5.37077 15.5471C5.74308 15.5166 5.98759 15.8667 5.97647 16.2614C5.96536 16.6894 5.68752 17.0062 5.27631 16.9645C4.52613 16.8922 4.45389 17.2674 4.50112 17.8594C4.5428 18.3874 4.52613 18.921 4.5039 19.4518C4.48723 19.8159 4.62615 19.9493 4.98457 19.927C5.50136 19.8909 5.95424 20.0549 5.96814 20.6413C5.98481 21.2721 5.51525 21.4416 4.97068 21.4083C4.59559 21.3833 4.49001 21.5473 4.50668 21.8946C4.52613 22.356 4.53169 22.8201 4.50668 23.2786C4.47056 23.9095 4.41499 24.4764 5.36244 24.382C5.73475 24.3458 5.98203 24.6932 5.97925 25.0851C5.97647 25.5158 5.69307 25.841 5.2902 25.7993C4.465 25.7159 4.4789 26.1912 4.50668 26.7609C4.53169 27.2667 4.52891 27.778 4.50668 28.2838C4.49279 28.6368 4.6067 28.798 4.97624 28.7674C5.49302 28.7257 5.94591 28.8786 5.96814 29.465C5.99314 30.1014 5.52081 30.2681 4.97901 30.2431C4.61226 30.2264 4.49835 30.3737 4.5039 30.7295C4.52057 31.7438 4.50668 32.761 4.51224 33.7781C4.51502 34.3368 4.80119 34.6341 5.36522 34.6425C5.59583 34.6452 5.82644 34.6452 6.05705 34.6452C15.8899 34.6452 25.72 34.6452 35.5529 34.6452C36.1169 34.6452 36.7893 34.5202 36.8893 35.3595C36.956 35.907 36.5504 36.1209 35.5418 36.1209C30.5573 36.1209 25.57 36.1209 20.5855 36.1209L20.591 36.1265Z" fill="url(#paint1_linear_175_1101)"/>
<path d="M17.0717 2.26373C21.556 2.2804 25.1486 5.90715 25.1319 10.4065C25.1152 14.8476 21.4838 18.4604 17.0383 18.4549C12.5623 18.4493 8.92251 14.8031 8.93362 10.3371C8.94473 5.86269 12.5873 2.24705 17.0717 2.26373ZM23.6482 10.3426C23.6399 6.68531 20.6808 3.72277 17.0411 3.72277C13.3708 3.72277 10.4062 6.7131 10.4229 10.401C10.4395 14.0472 13.4125 16.9931 17.0661 16.9819C20.7086 16.9708 23.6593 13.9972 23.6482 10.3426Z" fill="url(#paint2_linear_175_1101)"/>
<path d="M20.4775 9.40034C19.8907 10.1951 20.2976 11.1602 20.4388 12.1696C20.6035 13.3493 19.5226 14.3365 18.2161 14.3822C17.7248 14.3988 17.4369 14.4556 17.495 15.0482C17.5393 15.494 17.3027 15.8056 16.8169 15.8208C16.2979 15.836 16.028 15.5314 16.0723 15.0454C16.1276 14.4459 15.8384 14.3573 15.3457 14.3905C14.8876 14.421 14.4267 14.4057 13.9672 14.3919C13.4648 14.3766 13.0953 14.1399 13.1161 13.6096C13.1341 13.1277 13.4718 12.8522 13.9603 12.9145C14.5111 12.9837 14.6011 12.7428 14.5859 12.2568C14.5527 11.1546 14.5623 10.0511 14.5831 8.94757C14.59 8.58618 14.4793 8.4491 14.1167 8.4851C13.5603 8.54049 13.1036 8.34387 13.1175 7.73326C13.1313 7.12125 13.6212 6.98141 14.1568 6.99525C14.4558 7.00218 14.7561 6.97726 15.0523 7.00079C15.6723 7.05064 16.1844 7.04372 16.0958 6.15895C16.0571 5.76572 16.3989 5.56356 16.7975 5.57048C17.239 5.57879 17.5227 5.83079 17.4867 6.25725C17.4341 6.88172 17.6791 7.00495 18.2645 7.02018C19.5323 7.05341 20.4623 8.0268 20.4775 9.40034ZM17.2957 12.9048C17.5711 12.9048 17.8466 12.9048 18.1206 12.9048C18.6022 12.9076 18.9455 12.6888 18.969 12.2014C18.9953 11.6545 18.6091 11.4454 18.1164 11.4302C17.6362 11.415 17.1518 11.4551 16.6729 11.4163C16.1858 11.3776 16.0391 11.5631 16.0584 12.0394C16.1 13.0959 15.9892 12.8826 16.9511 12.9062C17.066 12.909 17.1809 12.9062 17.2943 12.9062L17.2957 12.9048ZM17.3995 8.49618V8.48926C17.2625 8.48926 17.1241 8.48926 16.9871 8.48926C16.046 8.48926 15.8813 8.70803 16.0681 9.66618C16.1041 9.85034 16.1622 9.96803 16.3629 9.96664C17.0272 9.95972 17.6929 9.98049 18.3545 9.93203C18.7351 9.90434 18.9828 9.62603 18.9759 9.23003C18.969 8.80772 18.7088 8.55018 18.2936 8.50449C17.9988 8.47126 17.6985 8.49756 17.4009 8.49756L17.3995 8.49618Z" fill="url(#paint3_linear_175_1101)"/>
</g>
<defs>
<linearGradient id="paint0_linear_175_1101" x1="8.69451" y1="18.783" x2="37.4352" y2="30.405" gradientUnits="userSpaceOnUse">
<stop stop-color="#FF0700"/>
<stop offset="1" stop-color="#FD6C1D"/>
</linearGradient>
<linearGradient id="paint1_linear_175_1101" x1="2.76874" y1="6.33465" x2="41.4715" y2="14.5359" gradientUnits="userSpaceOnUse">
<stop stop-color="#FF0700"/>
<stop offset="1" stop-color="#FD6C1D"/>
</linearGradient>
<linearGradient id="paint2_linear_175_1101" x1="8.79861" y1="4.21346" x2="27.3197" y2="8.1428" gradientUnits="userSpaceOnUse">
<stop stop-color="#FF0700"/>
<stop offset="1" stop-color="#FD6C1D"/>
</linearGradient>
<linearGradient id="paint3_linear_175_1101" x1="13.0539" y1="6.80477" x2="21.6514" y2="8.11419" gradientUnits="userSpaceOnUse">
<stop stop-color="#FF0700"/>
<stop offset="1" stop-color="#FD6C1D"/>
</linearGradient>
<clipPath id="clip0_175_1101">
<rect width="33.8691" height="33.8691" fill="white" transform="translate(3.05078 2.25781)"/>
</clipPath>
</defs>
</svg>
