<svg width="41" height="41" viewBox="0 0 41 41" fill="none" xmlns="http://www.w3.org/2000/svg">
<path d="M29.2231 25.9871C28.475 25.9871 27.7254 25.9802 26.9773 25.9898C26.4675 25.9967 26.09 25.7935 26.09 25.2613C26.09 24.7291 26.4703 24.5328 26.9787 24.5355C28.3289 24.5438 29.6792 24.5438 31.0308 24.5355C31.6604 24.5314 31.9484 24.8231 31.9429 25.459C31.9305 26.8137 31.9374 28.1699 31.9401 29.5247C31.9401 29.9974 31.7734 30.3486 31.2567 30.3776C30.7001 30.4094 30.4755 30.05 30.4618 29.5551C30.4411 28.7989 30.4562 28.0427 30.4562 27.2464C30.1338 27.2796 30.0112 27.5243 29.8486 27.686C27.5449 29.9878 25.2702 32.3185 22.9445 34.5967C18.4542 38.9956 11.5239 38.9486 7.16589 34.5221C3.04213 30.3348 2.93879 23.5623 6.93304 19.1801C7.46487 18.5967 7.91679 18.4723 8.26124 18.8593C8.71591 19.3681 8.39902 19.7634 8.03941 20.1685C4.48469 24.1775 4.63211 29.9712 8.37422 33.647C11.7691 36.9814 17.2266 37.3989 20.9095 34.3755C23.9365 31.8913 26.4771 28.8722 29.2975 26.1543L29.2231 25.9857V25.9871Z" fill="url(#paint0_linear_175_1111)"/>
<path d="M11.6117 14.503C13.513 12.5842 15.3689 10.6184 17.3282 8.76047C18.9457 7.226 20.5123 5.61687 22.6713 4.76392C27.0816 3.02208 32.1244 4.34228 35.2919 7.87573C38.6317 11.5999 38.9569 18.2632 34.931 22.5639C34.4115 23.1182 33.932 23.2177 33.6014 22.8016C33.2624 22.3759 33.4291 22.0012 33.7626 21.6446C35.3016 19.9995 36.1985 18.0586 36.3887 15.8025C36.6201 13.0515 35.9064 10.5286 33.9858 8.58352C29.8813 4.42384 24.2296 4.55517 20.3869 7.91858C17.6947 10.2756 15.3069 12.9437 12.7442 15.432C12.6987 15.4762 12.6781 15.5454 12.6161 15.6559C13.3656 15.779 14.0889 15.7043 14.8068 15.7085C15.3483 15.7112 15.8195 15.8329 15.8098 16.4591C15.8016 17.0384 15.3538 17.1738 14.8357 17.1697C13.5544 17.1572 12.2716 17.1697 10.9903 17.1642C10.1677 17.16 9.96794 16.9596 9.96519 16.1564C9.95968 14.8694 9.96932 13.5837 9.96106 12.2967C9.95692 11.7866 10.0589 11.3442 10.6651 11.3262C11.3113 11.3069 11.4463 11.77 11.4491 12.3036C11.4532 13.0114 11.4491 13.7178 11.4491 14.4256L11.613 14.503H11.6117Z" fill="url(#paint1_linear_175_1111)"/>
<path d="M15.0411 34.8057C10.5592 34.7795 7.01132 31.1658 7.04714 26.6647C7.08297 22.1456 10.6942 18.6135 15.2464 18.6467C19.6458 18.6785 23.1867 22.3765 23.1495 26.9025C23.1137 31.264 19.4529 34.832 15.0411 34.8057ZM15.0825 20.1397C11.4478 20.1397 8.48695 23.105 8.49108 26.7421C8.49659 30.364 11.4919 33.3639 15.0963 33.357C18.724 33.3487 21.6642 30.3779 21.6601 26.7255C21.656 23.0456 18.7543 20.1411 15.0825 20.1397Z" fill="url(#paint2_linear_175_1111)"/>
<path d="M34.8551 14.9845C34.8482 19.4745 31.2521 23.066 26.7715 23.0564C22.3226 23.0467 18.7128 19.4096 18.7582 14.9112C18.8037 10.3727 22.1959 7.05355 26.8115 7.05078C31.4354 7.04802 34.8454 10.4128 34.8551 14.9845ZM26.7894 21.5634C30.4296 21.5772 33.3877 18.6382 33.4084 14.9886C33.4291 11.3736 30.4489 8.36546 26.8308 8.34749C23.2127 8.32952 20.2449 11.3031 20.2394 14.9499C20.2339 18.6326 23.1231 21.5509 26.7894 21.5634Z" fill="url(#paint3_linear_175_1111)"/>
<path d="M12.8683 26.6951C12.8683 26.3509 12.8601 26.0053 12.8697 25.6625C12.8876 25.0542 13.0254 24.4169 12.0238 24.4902C11.6338 24.5178 11.4024 24.1349 11.452 23.7008C11.4974 23.2985 11.7523 23.0829 12.1409 23.0677C12.7127 23.0469 13.2858 23.04 13.8562 23.0677C14.2351 23.0857 14.4005 22.9751 14.3577 22.5728C14.3013 22.0447 14.4983 21.6134 15.0659 21.6037C15.6791 21.5926 15.8637 22.0599 15.8334 22.6018C15.8127 22.964 15.9408 23.1022 16.3004 23.0622C18.1481 22.8576 19.4377 24.9519 18.3727 26.4905C18.2197 26.7117 18.3051 26.8444 18.4057 27.0338C19.2875 28.719 18.3506 30.3281 16.441 30.3931C16.04 30.4069 15.7934 30.4415 15.8279 30.9474C15.8637 31.4589 15.6487 31.8875 15.0604 31.8654C14.5258 31.846 14.3068 31.4589 14.3619 30.9585C14.4156 30.4719 14.1938 30.3751 13.7722 30.3959C13.2472 30.4221 12.7195 30.4055 12.1932 30.3959C11.7344 30.3876 11.4533 30.1636 11.4506 29.6825C11.4478 29.2028 11.7261 28.9319 12.1822 28.9692C12.7871 29.019 12.9235 28.7563 12.8766 28.213C12.8339 27.7112 12.867 27.2039 12.867 26.6979L12.8683 26.6951ZM15.5923 28.9485V28.9374C15.9105 28.9374 16.2329 28.9664 16.5471 28.9305C16.9783 28.8821 17.2746 28.654 17.2498 28.1702C17.2263 27.6932 16.926 27.4859 16.4851 27.4748C15.894 27.461 15.3015 27.4693 14.7105 27.4721C14.5548 27.4721 14.4184 27.4624 14.355 27.6836C14.1111 28.5351 14.3936 28.9485 15.2519 28.9485C15.3663 28.9485 15.4793 28.9485 15.5936 28.9485H15.5923ZM15.5991 25.9777V25.9721C15.9188 25.9721 16.2371 25.9818 16.5567 25.9694C16.9866 25.9528 17.2401 25.7274 17.2498 25.2865C17.2594 24.8123 17.0004 24.5648 16.5361 24.5565C15.9436 24.5441 15.3511 24.5482 14.7587 24.5524C14.5851 24.5524 14.417 24.5261 14.3522 24.7916C14.1414 25.6625 14.3688 25.9777 15.2575 25.9777C15.3718 25.9777 15.4848 25.9777 15.5991 25.9777Z" fill="url(#paint4_linear_175_1111)"/>
<path d="M30.4574 13.4047C30.4726 13.8609 30.2728 14.1747 29.8113 14.2217C29.391 14.2645 29.0976 14.0392 29.0411 13.6107C28.9515 12.9471 28.5575 12.7384 27.943 12.7522C27.1425 12.7702 26.3419 12.7508 25.5414 12.7605C25.062 12.766 24.6555 12.9181 24.6514 13.4862C24.6473 14.0904 25.0578 14.2397 25.5773 14.2369C26.4687 14.2314 27.3615 14.2258 28.253 14.2383C29.5371 14.2576 30.4671 15.2018 30.4588 16.4598C30.4506 17.6846 29.5316 18.6316 28.2833 18.6343C27.7831 18.6343 27.4511 18.6523 27.5324 19.3048C27.5944 19.7983 27.2761 20.1052 26.8008 20.108C26.3516 20.1108 26.0402 19.7831 26.0829 19.3491C26.1518 18.6717 25.8266 18.633 25.2921 18.6316C24.1843 18.6302 23.2529 17.7468 23.1565 16.6879C23.1151 16.2317 23.2226 15.8446 23.731 15.7451C24.227 15.6483 24.5467 15.9124 24.6101 16.3865C24.6927 17.01 25.0509 17.1704 25.6076 17.1579C26.4301 17.14 27.2541 17.1413 28.078 17.1579C28.5823 17.1676 28.9763 16.999 28.9859 16.4598C28.9956 15.8764 28.5823 15.7119 28.0504 15.7216C27.2045 15.7382 26.3571 15.7382 25.5111 15.7216C24.1072 15.694 23.1441 14.7733 23.1496 13.4862C23.1551 12.231 24.0768 11.3477 25.4712 11.3131C25.8914 11.302 26.0995 11.2288 26.0705 10.7449C26.0402 10.2307 26.262 9.80903 26.849 9.83944C27.3836 9.86709 27.5971 10.2583 27.5365 10.756C27.4662 11.3324 27.8093 11.3006 28.2034 11.3103C29.526 11.3421 30.4671 12.2296 30.4561 13.4019L30.4574 13.4047Z" fill="url(#paint5_linear_175_1111)"/>
<defs>
<linearGradient id="paint0_linear_175_1111" x1="3.77108" y1="20.9527" x2="34.2607" y2="30.3455" gradientUnits="userSpaceOnUse">
<stop stop-color="#FF0700"/>
<stop offset="1" stop-color="#FD6C1D"/>
</linearGradient>
<linearGradient id="paint1_linear_175_1111" x1="9.72833" y1="6.29497" x2="40.1457" y2="15.7424" gradientUnits="userSpaceOnUse">
<stop stop-color="#FF0700"/>
<stop offset="1" stop-color="#FD6C1D"/>
</linearGradient>
<linearGradient id="paint2_linear_175_1111" x1="6.91268" y1="20.5924" x2="25.3309" y2="24.4846" gradientUnits="userSpaceOnUse">
<stop stop-color="#FF0700"/>
<stop offset="1" stop-color="#FD6C1D"/>
</linearGradient>
<linearGradient id="paint3_linear_175_1111" x1="18.6237" y1="8.97821" x2="37.0208" y2="12.9019" gradientUnits="userSpaceOnUse">
<stop stop-color="#FF0700"/>
<stop offset="1" stop-color="#FD6C1D"/>
</linearGradient>
<linearGradient id="paint4_linear_175_1111" x1="11.3844" y1="22.8394" x2="19.927" y2="24.1302" gradientUnits="userSpaceOnUse">
<stop stop-color="#FF0700"/>
<stop offset="1" stop-color="#FD6C1D"/>
</linearGradient>
<linearGradient id="paint5_linear_175_1111" x1="23.0875" y1="11.0746" x2="31.6279" y2="12.3638" gradientUnits="userSpaceOnUse">
<stop stop-color="#FF0700"/>
<stop offset="1" stop-color="#FD6C1D"/>
</linearGradient>
</defs>
</svg>
