<svg width="41" height="40" viewBox="0 0 41 40" fill="none" xmlns="http://www.w3.org/2000/svg">
<path d="M14.5767 13.6507C14.6136 13.6507 14.6561 13.6382 14.6874 13.653C15.4203 13.9784 15.6974 13.5415 16.0482 12.9577C17.4928 10.5512 19.6034 9.04349 22.3072 8.41311C22.5765 8.35052 22.7653 8.31297 22.7843 7.93975C22.8435 6.74499 23.4915 5.90184 24.5306 5.57527C25.5786 5.24642 26.6155 5.59803 27.3361 6.56066C28.4511 8.05013 29.5506 9.55097 30.6589 11.0461C31.1192 11.6674 31.5449 12.3149 31.6466 13.1023C31.86 14.7601 30.6354 16.3782 28.7539 15.939C28.44 15.8661 28.2389 15.8809 28.1081 16.2257C28.0154 16.4692 27.8545 16.6865 27.7137 16.9084C27.2087 17.7106 27.2054 17.7106 27.7551 18.4571C28.726 19.7724 29.7494 21.0514 30.66 22.4089C31.9996 24.4081 33.4901 26.289 34.8733 28.2529C35.6263 29.3225 35.5727 30.5844 34.7828 31.4959C34.0107 32.3868 32.7761 32.6201 31.7404 32.0773C31.4555 31.9283 31.2544 31.7098 31.06 31.4447C28.5115 27.9764 25.9451 24.5219 23.3899 21.0582C23.2323 20.8454 23.0949 20.7328 22.8424 20.8841C22.7642 20.9319 22.6714 20.9626 22.5809 20.9786C21.6882 21.1413 21.1385 21.4394 20.8726 22.5534C20.4335 24.3956 17.9688 24.8257 16.7543 23.3487C15.5276 21.857 14.4214 20.2606 13.2684 18.7062C12.9667 18.2989 12.6461 17.8995 12.398 17.4591C11.445 15.7706 12.6762 13.6336 14.579 13.6484L14.5767 13.6507ZM23.2658 9.98222C20.8145 10.1484 17.7476 12.5185 16.9476 14.8238C16.856 15.0867 16.9755 15.2141 17.094 15.3734C18.0861 16.7195 19.0861 18.0588 20.0704 19.4117C20.2481 19.6552 20.4157 19.7383 20.7196 19.6825C23.5541 19.1625 25.5887 17.5786 26.859 14.9558C26.9707 14.7249 26.9629 14.5553 26.8032 14.3414C25.7775 12.9737 24.7641 11.5969 23.7519 10.2189C23.6211 10.0414 23.496 9.88664 23.267 9.98222H23.2658ZM33.7258 29.8505C33.7214 29.549 33.594 29.3612 33.4622 29.178C32.5672 27.9298 31.6198 26.7225 30.7851 25.4254C30.1863 24.4946 29.4746 23.6378 28.8165 22.7457C28.1271 21.8115 28.1372 21.8217 27.2076 22.5147C26.897 22.7468 26.8244 22.8879 27.0892 23.252C28.5338 25.2387 30.0991 27.1344 31.4131 29.2201C31.6633 29.6173 31.9538 29.9905 32.2544 30.3489C32.5024 30.6436 32.8231 30.7585 33.2052 30.589C33.5527 30.4354 33.7035 30.1589 33.7247 29.8494L33.7258 29.8505ZM25.2524 7.16259C24.9351 7.18194 24.6837 7.33555 24.5395 7.62343C24.3842 7.93179 24.4055 8.25153 24.6122 8.53258C25.9373 10.3316 27.259 12.1317 28.5986 13.9181C28.9483 14.3858 29.4221 14.4347 29.8142 14.1115C30.1773 13.8123 30.2366 13.3401 29.9137 12.8986C28.6053 11.111 27.2836 9.33364 25.9663 7.55288C25.7898 7.31393 25.5574 7.17397 25.2535 7.16259H25.2524ZM19.4324 21.6954C19.4246 21.4257 19.3073 21.2152 19.1598 21.0161C18.6459 20.322 18.1342 19.6268 17.6213 18.9315C16.8404 17.8745 16.065 16.8128 15.2728 15.7649C14.9231 15.3029 14.4516 15.238 14.0583 15.5532C13.6941 15.8457 13.6472 16.3133 13.9365 16.7673C13.9667 16.8151 13.9991 16.8618 14.0326 16.9073C15.2829 18.5982 16.5309 20.2902 17.7845 21.9788C17.8839 22.113 17.9934 22.2518 18.1263 22.3486C18.3856 22.5374 18.6716 22.5613 18.9665 22.41C19.2615 22.2587 19.3844 21.9981 19.4336 21.6954H19.4324ZM25.8244 21.4019C25.878 21.3768 25.9361 21.3643 25.9753 21.3302C26.325 21.0252 26.8735 20.858 27.0043 20.429C27.097 20.1263 26.6244 19.8327 26.43 19.5164C26.3808 19.4368 26.3093 19.3708 26.2657 19.2877C26.0993 18.968 25.9227 18.9782 25.6736 19.216C25.3809 19.4948 24.8289 19.7098 24.7999 19.9966C24.7675 20.3061 25.2054 20.6691 25.4468 21.0025C25.554 21.1492 25.6322 21.3302 25.8244 21.403V21.4019Z" fill="url(#paint0_linear_175_1124)"/>
<path d="M15.3726 34.5451C12.937 34.5451 10.5024 34.5451 8.06674 34.5451C7.20755 34.5451 6.94834 34.2755 6.94611 33.3879C6.94499 32.8952 6.94052 32.4037 6.94611 31.911C6.9584 30.8983 7.39526 30.12 8.26785 29.6444C8.57511 29.4771 8.62985 29.2814 8.62427 28.9753C8.61756 28.5805 8.5874 28.1845 8.69019 27.7908C8.9818 26.6779 9.86445 25.9224 10.9896 25.9167C13.9079 25.9019 16.8262 25.8985 19.7457 25.9167C21.0786 25.9258 22.0819 26.984 22.1188 28.3472C22.121 28.4416 22.1311 28.5383 22.1188 28.6305C22.0428 29.1619 22.1881 29.5021 22.7009 29.7991C23.4338 30.2247 23.7757 30.9768 23.7914 31.8507C23.8014 32.4185 23.8003 32.9863 23.7914 33.5541C23.7824 34.2402 23.4808 34.5417 22.788 34.5429C20.3155 34.5474 17.843 34.5451 15.3704 34.5451H15.3726ZM15.3369 32.8406C17.434 32.8406 19.5323 32.844 21.6294 32.8338C21.797 32.8338 22.0428 32.9772 22.1221 32.6415C22.3635 31.6151 21.921 31.0234 20.8898 31.0234C17.2329 31.0234 13.5761 31.0234 9.9192 31.0234C8.83767 31.0234 8.6265 31.259 8.60974 32.3456C8.60416 32.7394 8.70471 32.8543 9.10023 32.8509C11.1795 32.8304 13.2576 32.8418 15.3369 32.8418V32.8406ZM15.3715 29.3178C16.8944 29.3178 18.4172 29.3201 19.9401 29.3144C20.0999 29.3144 20.3635 29.3963 20.3993 29.2359C20.4853 28.8558 20.5233 28.4462 20.3658 28.0707C20.2295 27.7453 19.9546 27.611 19.6027 27.6121C16.7793 27.6167 13.9571 27.6144 11.1337 27.6133C10.9627 27.6133 10.8041 27.6372 10.6577 27.7362C10.3281 27.9569 10.127 28.6453 10.3047 29.1335C10.4387 29.5021 10.7862 29.3041 11.0253 29.3075C12.4733 29.3292 13.9224 29.3178 15.3715 29.3178Z" fill="url(#paint1_linear_175_1124)"/>
<defs>
<linearGradient id="paint0_linear_175_1124" x1="11.8739" y1="8.69591" x2="38.8489" y2="13.6569" gradientUnits="userSpaceOnUse">
<stop stop-color="#FF0700"/>
<stop offset="1" stop-color="#FD6C1D"/>
</linearGradient>
<linearGradient id="paint1_linear_175_1124" x1="6.8029" y1="26.9449" x2="24.0002" y2="34.0582" gradientUnits="userSpaceOnUse">
<stop stop-color="#FF0700"/>
<stop offset="1" stop-color="#FD6C1D"/>
</linearGradient>
</defs>
</svg>
