<svg width="41" height="40" viewBox="0 0 41 40" fill="none" xmlns="http://www.w3.org/2000/svg">
<g clip-path="url(#clip0_175_1133)">
<path d="M13.4421 19.308C13.4421 18.3879 13.4421 17.4677 13.4421 16.5462C13.4421 16.1311 13.4081 15.7174 13.8092 15.4282C14.0689 15.2414 13.8473 14.9951 13.7997 14.8014C12.8398 10.9548 15.0491 7.14279 18.815 6.17284C23.8739 4.86804 28.4936 9.58635 27.1912 14.7281C27.1069 15.0588 26.9845 15.3549 27.3557 15.6233C27.5596 15.7714 27.5379 16.0758 27.5379 16.3331C27.5352 18.3353 27.5406 20.3375 27.5338 22.3396C27.5311 23.1366 27.3149 23.3248 26.5141 23.3539C25.9105 23.376 25.1736 23.1048 24.7413 23.4743C24.3334 23.8229 24.4708 24.5909 24.3783 25.1762C23.9772 27.7387 23.5816 30.3027 23.1996 32.868C23.0378 33.9556 22.9073 34.0884 21.8142 34.0884C20.887 34.0884 19.9611 34.0898 19.0339 34.0884C18.1339 34.0856 17.9463 33.9445 17.8131 33.0783C17.3875 30.3331 16.9606 27.5879 16.5609 24.8399C16.3447 23.3553 16.3692 23.3511 14.8778 23.3511C14.7201 23.3511 14.561 23.3539 14.4033 23.3511C13.6678 23.3345 13.453 23.1187 13.4462 22.3479C13.438 21.3351 13.4435 20.3223 13.4435 19.3108L13.4421 19.308ZM20.4424 15.3272C21.9773 15.3272 23.5123 15.3106 25.0472 15.3383C25.47 15.3466 25.6427 15.1736 25.7664 14.8014C26.5237 12.5142 25.7243 9.90736 23.8073 8.46696C21.8088 6.96568 19.1916 6.96015 17.1877 8.45174C15.2653 9.88384 14.4618 12.4699 15.2041 14.7779C15.336 15.1861 15.5317 15.3466 15.9736 15.3383C17.4623 15.3078 18.9524 15.3272 20.4424 15.3272ZM20.4315 21.9591C22.1473 21.9591 23.863 21.9425 25.5788 21.9702C26.0573 21.9785 26.1919 21.8277 26.1811 21.3489C26.1511 20.0165 26.1552 18.6826 26.1797 17.3501C26.1879 16.8949 26.0913 16.7053 25.591 16.7081C22.1826 16.7289 18.7729 16.7261 15.3645 16.7095C14.9118 16.7067 14.7894 16.8589 14.7976 17.3031C14.8221 18.6591 14.8289 20.0151 14.7949 21.3711C14.7826 21.8803 14.973 21.9757 15.4203 21.9688C17.0911 21.9467 18.7607 21.9591 20.4315 21.9591ZM20.49 32.6978C20.7157 32.6978 20.9468 32.6701 21.1671 32.7033C21.6728 32.7808 21.874 32.5691 21.9488 32.0613C22.3444 29.3562 22.7659 26.6567 23.186 23.9558C23.2499 23.5407 23.1941 23.3276 22.6897 23.3387C21.2201 23.3705 19.7504 23.3719 18.2807 23.3387C17.7696 23.3276 17.726 23.5517 17.7899 23.9599C18.1801 26.4325 18.554 28.9079 18.9524 31.3792C19.1658 32.7006 19.1821 32.6978 20.4886 32.6978H20.49Z" fill="url(#paint0_linear_175_1133)"/>
<path d="M37.727 21.0124C37.553 26.3105 34.9698 31.2848 29.828 34.8353C25.7847 37.6275 21.3431 38.2349 16.6269 37.2608C16.4719 37.229 16.3155 37.193 16.1687 37.1363C15.788 36.9896 15.5474 36.7212 15.6752 36.2909C15.7962 35.8827 16.1143 35.707 16.5262 35.8025C17.3189 35.9879 18.1142 36.1332 18.9258 36.2176C22.341 36.5745 25.6066 35.974 28.4726 34.0895C34.0671 30.4075 36.8365 25.1717 36.2492 18.2852C36.0262 15.6687 35.1371 13.2874 33.749 11.0832C33.5314 10.7373 33.3384 10.6653 32.9414 10.7885C31.6294 11.1953 30.24 10.5684 29.6132 9.3439C28.9933 8.1318 29.2733 6.68863 30.3039 5.77818C31.3031 4.8954 32.8272 4.84143 33.8672 5.65088C34.9739 6.51152 35.36 7.95884 34.7387 9.22214C34.5293 9.64831 34.6028 9.90844 34.8325 10.2613C36.7617 13.2306 37.7175 16.4836 37.727 21.0124ZM32.161 6.46863C31.3235 6.46863 30.6642 7.13833 30.6628 7.99205C30.6614 8.84993 31.3127 9.51547 32.1542 9.51686C32.9931 9.51686 33.6552 8.84855 33.6565 7.99759C33.6579 7.14801 32.9944 6.47001 32.161 6.46863Z" fill="url(#paint1_linear_175_1133)"/>
<path d="M4.47532 20.1856C4.52698 23.2822 5.37126 26.2391 7.09109 28.9345C7.30861 29.2749 7.49351 29.3607 7.89594 29.2348C9.2079 28.8252 10.5933 29.4465 11.2295 30.671C11.8536 31.872 11.5749 33.3291 10.5484 34.2395C9.54778 35.1264 8.03053 35.1846 6.98504 34.3765C5.88109 33.5228 5.49226 32.0699 6.1027 30.808C6.30527 30.3901 6.25361 30.13 6.01976 29.7675C-0.78748 19.2156 4.94028 5.21148 17.1123 2.65307C19.4861 2.15357 21.8721 2.2103 24.2445 2.73886C24.7257 2.84679 25.1703 3.02113 25.0575 3.61611C24.9419 4.22769 24.4334 4.20555 23.9712 4.10731C22.2568 3.74202 20.537 3.61749 18.7859 3.81397C12.2397 4.54594 6.76751 9.26564 5.04361 15.7163C4.66294 17.1429 4.46988 18.5985 4.47532 20.1856ZM8.66272 30.5064C7.8266 30.5174 7.17674 31.1982 7.18761 32.0533C7.19985 32.9001 7.87554 33.567 8.71166 33.5546C9.54778 33.5435 10.1922 32.8628 10.1813 32.0035C10.1705 31.1484 9.507 30.4953 8.66272 30.5064Z" fill="url(#paint2_linear_175_1133)"/>
<path d="M14.945 35.795C14.9233 36.1981 14.7286 36.4419 14.3258 36.4613C13.8944 36.4807 13.6262 36.2244 13.6031 35.8172C13.5786 35.4003 13.8494 35.1108 14.2632 35.1094C14.666 35.108 14.9219 35.3559 14.945 35.795Z" fill="url(#paint3_linear_175_1133)"/>
<path d="M26.747 4.94733C26.3523 4.87253 26.0597 4.67169 26.0706 4.23952C26.0815 3.82121 26.3319 3.56218 26.7593 3.57465C27.1485 3.58712 27.3853 3.83229 27.4003 4.22013C27.4166 4.65368 27.1417 4.86561 26.747 4.94595V4.94733Z" fill="url(#paint4_linear_175_1133)"/>
<path d="M21.163 26.2353C21.163 26.5329 21.1861 26.8332 21.1562 27.1265C21.1167 27.514 20.8965 27.7534 20.4913 27.7548C20.0861 27.7548 19.8481 27.5182 19.8264 27.1293C19.7937 26.537 19.7978 25.9392 19.8209 25.3455C19.8372 24.9151 20.0861 24.673 20.5212 24.6882C20.9264 24.702 21.1317 24.9497 21.1589 25.3427C21.1793 25.6389 21.163 25.9378 21.1616 26.2339L21.163 26.2353Z" fill="url(#paint5_linear_175_1133)"/>
</g>
<defs>
<linearGradient id="paint0_linear_175_1133" x1="13.3239" y1="9.34132" x2="29.98" y2="11.111" gradientUnits="userSpaceOnUse">
<stop stop-color="#FF0700"/>
<stop offset="1" stop-color="#FD6C1D"/>
</linearGradient>
<linearGradient id="paint1_linear_175_1133" x1="15.4566" y1="9.00588" x2="41.3135" y2="12.7189" gradientUnits="userSpaceOnUse">
<stop stop-color="#FF0700"/>
<stop offset="1" stop-color="#FD6C1D"/>
</linearGradient>
<linearGradient id="paint2_linear_175_1133" x1="2.9283" y1="6.23884" x2="28.6482" y2="9.90935" gradientUnits="userSpaceOnUse">
<stop stop-color="#FF0700"/>
<stop offset="1" stop-color="#FD6C1D"/>
</linearGradient>
<linearGradient id="paint3_linear_175_1133" x1="13.5904" y1="35.2723" x2="15.1275" y2="35.596" gradientUnits="userSpaceOnUse">
<stop stop-color="#FF0700"/>
<stop offset="1" stop-color="#FD6C1D"/>
</linearGradient>
<linearGradient id="paint4_linear_175_1133" x1="26.0592" y1="3.73957" x2="27.5848" y2="4.05308" gradientUnits="userSpaceOnUse">
<stop stop-color="#FF0700"/>
<stop offset="1" stop-color="#FD6C1D"/>
</linearGradient>
<linearGradient id="paint5_linear_175_1133" x1="19.7913" y1="25.0569" x2="21.4123" y2="25.2103" gradientUnits="userSpaceOnUse">
<stop stop-color="#FF0700"/>
<stop offset="1" stop-color="#FD6C1D"/>
</linearGradient>
<clipPath id="clip0_175_1133">
<rect width="34.6154" height="35.3846" fill="white" transform="translate(3.10742 2.30859)"/>
</clipPath>
</defs>
</svg>
