<svg width="41" height="40" viewBox="0 0 41 40" fill="none" xmlns="http://www.w3.org/2000/svg">
<g clip-path="url(#clip0_175_1150)">
<path d="M26.5706 14.9278C27.226 15.7347 27.7228 16.462 28.0637 17.2902C28.2638 17.7747 28.4266 18.2989 27.8139 18.5531C27.2012 18.8074 26.9859 18.2974 26.7748 17.823C25.2016 14.2843 21.2025 12.8452 17.9306 14.6337C14.6945 16.4024 13.5077 20.6286 15.4452 23.8164C16.4843 25.5268 18.0699 26.5311 20.035 26.8337C20.3289 26.8792 20.6284 26.8976 20.9251 26.9303C21.3929 26.9815 21.6123 27.2599 21.6137 27.7358C21.6137 27.8068 21.6137 27.8778 21.6137 27.9489C21.6275 29.0011 22.1574 29.5271 23.2034 29.5271C24.9932 29.5271 26.7831 29.5399 28.5715 29.5186C29.0697 29.5129 29.3816 29.6962 29.6134 30.1494C30.1681 31.2347 30.7657 32.2959 31.3232 33.3783C31.4888 33.6994 31.6392 33.7889 32.0159 33.7008C33.0854 33.4508 34.1066 34.0006 34.5827 35.0021C35.0505 35.9851 34.8352 37.106 34.0403 37.8376C33.2303 38.5834 32.0711 38.6629 31.1824 38.0364C30.2882 37.4057 29.9184 36.3047 30.302 35.2336C30.4372 34.8572 30.4014 34.5773 30.2164 34.2463C29.681 33.2846 29.1635 32.3129 28.6626 31.3313C28.5149 31.0415 28.3383 30.9392 28.0209 30.9406C26.071 30.9548 24.1211 30.9619 22.1712 30.9364C21.7131 30.9307 21.5958 31.0784 21.6013 31.5344C21.6234 33.4707 21.6123 35.4084 21.6096 37.346C21.6096 38.2623 21.4177 38.4527 20.5152 38.4555C19.6886 38.4583 18.8634 38.4441 18.0368 38.4598C17.4269 38.4711 17.0543 38.1472 17.1702 37.562C17.4945 35.9112 16.7438 35.2066 15.2741 34.8984C14.6655 34.7705 14.1025 34.3784 13.5395 34.0659C13.2304 33.894 13.0165 33.8798 12.7681 34.1724C12.4355 34.5617 12.0602 34.9126 11.7027 35.2805C11.3274 35.6655 10.9369 35.6868 10.5587 35.3004C9.15945 33.867 7.76706 32.428 6.37467 30.9903C5.97034 30.5727 5.95378 30.0925 6.41745 29.7786C7.7367 28.8865 7.79466 27.8608 6.92528 26.5965C6.65618 26.2058 6.51267 25.6958 6.41193 25.2171C6.25599 24.4841 5.88478 24.2781 5.16443 24.3065C3.20349 24.3875 3.29043 24.3761 3.30285 22.3873C3.31251 20.7806 3.30009 19.1739 3.30699 17.5687C3.30975 16.8001 3.49881 16.6254 4.24399 16.5842C4.8567 16.5515 5.61154 16.8442 6.04209 16.4521C6.42987 16.0984 6.45471 15.3398 6.6824 14.7786C6.94736 14.128 7.24129 13.4873 7.56144 12.8637C7.72428 12.5455 7.74084 12.3253 7.45933 12.0696C7.08121 11.7272 6.74174 11.3394 6.38295 10.9743C6.00484 10.5879 5.98828 10.1916 6.36501 9.80092C7.75602 8.36045 9.15117 6.92282 10.5477 5.48803C10.952 5.07322 11.4254 5.06186 11.7276 5.53349C12.5956 6.88873 13.5795 6.93135 14.8242 6.06337C15.3376 5.70538 16.0069 5.56617 16.621 5.38717C17.0184 5.27068 17.1895 5.08885 17.1619 4.65273C17.1302 4.13564 17.1509 3.61428 17.166 3.09435C17.1812 2.58294 17.4448 2.31303 17.9485 2.31303C18.8662 2.31161 19.7839 2.32013 20.7015 2.30877C21.3349 2.30024 21.622 2.60425 21.6192 3.25488C21.6109 5.21528 21.6344 7.17711 21.604 9.13751C21.5958 9.66455 21.7296 9.82081 22.2512 9.81229C24.1321 9.77961 26.0144 9.7853 27.8953 9.81087C28.3245 9.81655 28.5536 9.66881 28.7454 9.28525C29.2187 8.3434 29.7238 7.41718 30.233 6.49523C30.4014 6.1898 30.4483 5.9341 30.3186 5.57469C29.9184 4.46805 30.2937 3.34579 31.2114 2.71648C32.0877 2.11557 33.2124 2.19086 34.0141 2.90683C34.82 3.62423 35.056 4.74933 34.6075 5.73379C34.1425 6.75661 33.0937 7.32627 31.9925 7.0592C31.5881 6.96118 31.4653 7.1217 31.3121 7.41434C30.7781 8.43006 30.2068 9.42589 29.7017 10.4572C29.4133 11.0468 29.0117 11.2471 28.3866 11.2371C26.3222 11.2073 24.2577 11.2258 22.1919 11.2272C21.9021 11.2272 21.5502 11.1491 21.6178 11.6562C21.6661 12.0213 21.4012 12.5185 22.1146 12.5625C22.7025 12.5995 23.3028 12.7586 23.823 13.0597C24.5558 13.4845 25.3286 13.53 26.1386 13.5186C27.974 13.4944 29.8093 13.493 31.6447 13.5229C32.1236 13.53 32.481 13.4092 32.7749 13.0256C32.9308 12.8239 33.1185 12.6449 33.3062 12.4716C33.803 12.0128 34.1632 11.6093 33.9161 10.7627C33.6346 9.79382 34.3357 8.7227 35.2506 8.29937C36.1572 7.88029 37.3095 8.13458 37.9553 8.89743C38.6563 9.72563 38.7433 10.872 38.1747 11.7855C37.6214 12.6748 36.5809 13.1251 35.6107 12.7927C35.1747 12.6435 34.9083 12.7302 34.6765 13.0739C33.6015 14.6664 32.1346 15.1721 30.2896 14.9534C29.1138 14.8142 27.9105 14.9278 26.5692 14.9278H26.5706ZM20.2365 8.10049C20.2365 6.94271 20.1882 5.78209 20.253 4.62858C20.2944 3.88562 20.075 3.691 19.3616 3.70094C18.7102 3.71088 18.4287 3.85862 18.5377 4.55613C18.5778 4.80899 18.5281 5.07606 18.5474 5.33461C18.5971 6.03496 18.3252 6.42988 17.6283 6.57904C16.5934 6.79923 15.6232 7.21972 14.6669 7.68283C14.0928 7.96127 13.6126 8.57922 12.9571 8.50819C12.2616 8.4329 11.9401 7.68141 11.4599 7.22683C11.1908 6.97254 11.0431 6.97396 10.7975 7.23961C10.1972 7.89024 9.55964 8.50393 8.95797 9.15314C8.58262 9.558 7.9161 9.8819 7.91196 10.3876C7.90782 10.8507 8.5426 11.2002 8.92624 11.5639C9.40233 12.0156 9.42579 12.446 9.08769 12.9958C8.29697 14.28 7.7367 15.6694 7.41793 17.1567C7.28959 17.7519 6.96392 18.0531 6.35397 18.0218C5.96482 18.002 5.5729 18.0403 5.18375 18.0119C4.80012 17.9849 4.66074 18.117 4.67316 18.5261C4.69938 19.3998 4.66488 20.2749 4.68696 21.1485C4.70076 21.7083 4.44961 22.4157 4.79736 22.7879C5.11751 23.1303 5.79922 22.9015 6.31947 22.8902C6.9584 22.8774 7.29235 23.1672 7.42759 23.7951C7.66218 24.8833 8.10377 25.8947 8.58124 26.8849C9.41475 28.608 9.43959 28.6151 8.11343 30.013C7.7988 30.344 7.84572 30.5144 8.13965 30.7971C8.7427 31.3782 9.30021 32.0075 9.9005 32.5913C10.3103 32.9905 10.6457 33.7349 11.1452 33.6994C11.5675 33.6696 11.9636 33.0175 12.3417 32.6112C12.7156 32.2092 13.0827 32.1296 13.5574 32.4365C14.867 33.2803 16.2732 33.8954 17.787 34.2378C18.3114 34.3557 18.5584 34.6981 18.546 35.2535C18.5364 35.7024 18.5598 36.1513 18.5419 36.6002C18.5281 36.9383 18.6509 37.0747 18.9793 37.0449C19.1836 37.0264 19.3961 37.0165 19.5976 37.0463C20.104 37.123 20.2572 36.9383 20.2503 36.3957C20.2199 33.8926 20.2282 31.3881 20.2448 28.8836C20.2475 28.4546 20.1523 28.3026 19.6969 28.2245C17.0819 27.777 15.0864 26.3024 13.9231 23.8974C11.602 19.1001 14.5731 13.3737 19.73 12.5441C20.1592 12.4745 20.2503 12.3296 20.2434 11.929C20.2241 10.6533 20.2365 9.37759 20.2365 8.10191V8.10049ZM37.166 10.4629C37.1467 9.92025 36.6982 9.50544 36.1572 9.53101C35.6494 9.55516 35.2506 9.9785 35.2506 10.4956C35.2506 11.0255 35.7115 11.4957 36.2235 11.4857C36.7368 11.4758 37.1853 10.99 37.1674 10.4643L37.166 10.4629ZM33.4483 4.72234C33.4483 4.19814 32.9833 3.72509 32.4741 3.73503C31.9911 3.74498 31.5523 4.18536 31.5329 4.68398C31.5122 5.20676 31.9607 5.69544 32.4713 5.7068C32.9791 5.71817 33.447 5.24653 33.4483 4.72234ZM32.5113 37.0349C33.0192 37.0221 33.4704 36.5292 33.4483 36.0093C33.4263 35.5135 32.9847 35.0703 32.5031 35.0632C31.9925 35.056 31.5302 35.5277 31.5329 36.0533C31.5357 36.5803 32.0021 37.0477 32.5113 37.0349Z" fill="url(#paint0_linear_175_1150)"/>
<path d="M20.9014 25.7014C17.9772 25.5721 15.8548 23.7026 15.7085 20.7762C15.5595 17.7944 17.6929 15.3113 20.5012 15.0811C21.0214 15.0385 21.5417 15.0953 21.5844 15.746C21.6245 16.3568 21.1622 16.5102 20.6474 16.4989C20.624 16.4989 20.6019 16.5003 20.5784 16.5031C18.4243 16.7645 16.9091 18.6297 17.0788 20.8118C17.2417 22.8972 19.0425 24.5039 21.1222 24.42C23.0141 24.3433 24.5748 22.7849 24.7584 20.7464C24.8053 20.2236 24.895 19.7833 25.4939 19.7648C25.9659 19.7506 26.2115 20.235 26.1397 20.9552C25.8651 23.7254 23.6806 25.7028 20.8986 25.6986L20.9014 25.7014Z" fill="url(#paint1_linear_175_1150)"/>
<path d="M30.0545 25.8429C30.0779 25.8429 30.1014 25.8458 30.1235 25.8429C32.0499 25.5077 33.6162 26.0873 34.7464 27.7749C34.9644 28.1002 35.217 28.096 35.5744 27.9823C36.6135 27.6528 37.6913 28.1216 38.2294 29.0748C38.769 30.0322 38.6103 31.2341 37.8417 32.0026C37.0937 32.7512 35.8738 32.8905 34.9824 32.3279C34.0785 31.7568 33.6659 30.6545 33.9984 29.5677C34.095 29.2495 34.0785 29.0307 33.8218 28.8361C33.7859 28.8077 33.7514 28.7736 33.7252 28.7352C32.8876 27.5079 31.7698 27.0405 30.3112 27.2408C29.4777 27.3559 28.6166 27.2522 27.7693 27.2649C27.289 27.272 26.9137 27.0888 26.9026 26.5788C26.8902 26.0248 27.278 25.8316 27.7872 25.8401C28.5434 25.8529 29.301 25.8429 30.0572 25.8429H30.0545ZM36.1885 29.2893C35.6737 29.3006 35.2294 29.7851 35.2501 30.3135C35.2708 30.859 35.7151 31.2681 36.2602 31.2412C36.7681 31.217 37.1669 30.7908 37.1655 30.2752C37.1641 29.7453 36.7004 29.2779 36.1885 29.2893Z" fill="url(#paint2_linear_175_1150)"/>
<path d="M35.9317 22.8645C35.3134 22.839 34.6041 22.4611 34.2108 21.6741C33.9873 21.2266 33.7237 21.1385 33.3042 21.1627C32.8695 21.1883 32.4334 21.1726 31.9974 21.1641C31.5682 21.1556 31.2839 20.9269 31.2701 20.4851C31.2549 20.039 31.5406 19.806 31.956 19.7549C32.1147 19.735 32.2775 19.7364 32.4376 19.7492C33.289 19.8202 33.9831 19.7691 34.5462 18.8486C35.123 17.9081 36.387 17.8144 37.3365 18.3599C38.2459 18.8827 38.733 20.0078 38.4846 21.0093C38.2072 22.1273 37.284 22.8716 35.933 22.8645H35.9317ZM37.164 20.4623C37.164 19.9396 36.692 19.4637 36.1869 19.475C35.7067 19.4864 35.2679 19.9339 35.2499 20.4311C35.2306 20.9595 35.6736 21.4354 36.1911 21.444C36.7072 21.4525 37.1653 20.9908 37.164 20.4623Z" fill="url(#paint3_linear_175_1150)"/>
<path d="M28.6815 20.441C28.6442 20.903 28.426 21.1717 27.9869 21.1547C27.5463 21.1376 27.3322 20.8405 27.3529 20.4083C27.3709 20.0073 27.5988 19.75 28.0062 19.75C28.4481 19.75 28.6512 20.0258 28.6815 20.4395V20.441Z" fill="url(#paint4_linear_175_1150)"/>
<path d="M25.4322 26.5403C25.3701 26.954 25.1684 27.2568 24.7265 27.2441C24.3329 27.2341 24.0939 26.9896 24.0843 26.5673C24.0746 26.1451 24.3025 25.8877 24.6933 25.8564C25.1325 25.8209 25.3507 26.1124 25.4322 26.5403Z" fill="url(#paint5_linear_175_1150)"/>
<path d="M10.1422 19.7114C10.5755 15.3559 12.6648 12.1865 16.5163 10.2844C16.7398 10.1736 16.9703 10.0585 17.2339 10.0713C17.5444 10.0855 17.7527 10.2432 17.8562 10.5372C17.9514 10.8086 17.8866 11.0671 17.6782 11.2433C17.5057 11.3896 17.2891 11.4833 17.0848 11.5842C13.766 13.2335 11.8851 15.9227 11.536 19.7185C11.5139 19.9529 11.4973 20.1887 11.4766 20.4231C11.438 20.8535 11.2406 21.1561 10.7963 21.1504C10.3105 21.1447 10.1325 20.7924 10.1077 20.3464C10.0966 20.1361 10.1298 19.923 10.1422 19.7114Z" fill="url(#paint6_linear_175_1150)"/>
</g>
<defs>
<linearGradient id="paint0_linear_175_1150" x1="3.00509" y1="6.66204" x2="43.396" y2="15.0136" gradientUnits="userSpaceOnUse">
<stop stop-color="#FF0700"/>
<stop offset="1" stop-color="#FD6C1D"/>
</linearGradient>
<linearGradient id="paint1_linear_175_1150" x1="15.6141" y1="16.3505" x2="27.5813" y2="18.8453" gradientUnits="userSpaceOnUse">
<stop stop-color="#FF0700"/>
<stop offset="1" stop-color="#FD6C1D"/>
</linearGradient>
<linearGradient id="paint2_linear_175_1150" x1="26.8053" y1="26.5853" x2="39.1479" y2="30.9897" gradientUnits="userSpaceOnUse">
<stop stop-color="#FF0700"/>
<stop offset="1" stop-color="#FD6C1D"/>
</linearGradient>
<linearGradient id="paint3_linear_175_1150" x1="31.2089" y1="18.6081" x2="39.1035" y2="21.1266" gradientUnits="userSpaceOnUse">
<stop stop-color="#FF0700"/>
<stop offset="1" stop-color="#FD6C1D"/>
</linearGradient>
<linearGradient id="paint4_linear_175_1150" x1="27.3405" y1="19.9192" x2="28.8681" y2="20.2258" gradientUnits="userSpaceOnUse">
<stop stop-color="#FF0700"/>
<stop offset="1" stop-color="#FD6C1D"/>
</linearGradient>
<linearGradient id="paint5_linear_175_1150" x1="24.0727" y1="26.021" x2="25.6184" y2="26.3387" gradientUnits="userSpaceOnUse">
<stop stop-color="#FF0700"/>
<stop offset="1" stop-color="#FD6C1D"/>
</linearGradient>
<linearGradient id="paint6_linear_175_1150" x1="10.0405" y1="11.4046" x2="19.1502" y2="12.7634" gradientUnits="userSpaceOnUse">
<stop stop-color="#FF0700"/>
<stop offset="1" stop-color="#FD6C1D"/>
</linearGradient>
<clipPath id="clip0_175_1150">
<rect width="35.25" height="36.1538" fill="white" transform="translate(3.29297 2.30859)"/>
</clipPath>
</defs>
</svg>
