<svg width="41" height="40" viewBox="0 0 41 40" fill="none" xmlns="http://www.w3.org/2000/svg">
<g clip-path="url(#clip0_175_1165)">
<g clip-path="url(#clip1_175_1165)">
<path d="M22.5497 22.765C23.3722 24.3686 22.6283 25.402 21.4839 26.2909C21.1266 26.5689 21.1343 26.9286 21.2929 27.271C21.9167 28.6154 21.4593 29.6268 20.5629 30.6979C18.8702 32.7208 17.3146 34.8631 15.7005 36.9551C15.8792 37.2393 16.1333 37.1121 16.3366 37.1121C18.8209 37.1231 21.3053 37.1216 23.7911 37.1168C24.2439 37.1168 24.7306 37.1027 24.7414 37.7309C24.7522 38.356 24.2824 38.3749 23.8188 38.3749C16.4675 38.3717 9.11624 38.367 1.76494 38.3827C1.0426 38.3827 0.756122 38.1299 0.763823 37.3776C0.790006 34.4783 0.754582 31.579 0.780765 28.6813C0.811568 25.3093 3.23428 22.0991 6.4086 21.1615C7.36659 20.8788 7.71467 21.2133 7.49905 22.2153C7.48827 22.2656 7.46978 22.3158 7.4513 22.3645C6.88143 23.7419 7.02929 24.912 8.34923 25.7836C8.79896 26.0805 8.86673 26.5312 8.64494 27.026C8.07661 28.295 8.42008 29.2954 9.33032 30.3116C10.4654 31.5775 11.4358 32.9988 12.5971 34.3055C12.4785 33.8878 12.3676 33.4684 12.2413 33.0538C11.137 29.3959 10.0403 25.735 8.91294 22.085C8.73581 21.5133 8.76508 21.0939 9.23637 20.7013C9.59216 20.406 9.88479 20.0338 10.2313 19.7244C10.6857 19.3192 10.7997 18.3533 10.3807 17.8947C9.90327 17.3733 9.4751 16.822 9.23021 16.1545C9.09314 15.7838 8.79126 15.7587 8.50787 15.6692C7.22181 15.2608 6.40552 14.2494 6.31618 12.9505C6.23456 11.7506 7.05701 10.7989 8.23217 10.8004C8.65572 10.8004 8.91448 10.7141 9.1532 10.323C9.47972 9.78742 10.0095 9.52356 10.6518 9.53142C11.3942 9.54084 12.1381 9.5377 12.8804 9.53142C14.0741 9.51885 14.7271 8.95816 14.9073 7.74411C14.9705 7.32477 15.1122 7.02793 15.5573 7.0405C15.9562 7.05149 16.0964 7.32948 16.158 7.71427C16.3505 8.93617 16.8726 9.42933 18.0801 9.53299C18.7809 9.59267 19.2753 9.95076 19.6265 10.5429C19.7081 10.6811 19.7697 10.8161 19.9653 10.7894C20.1732 10.7596 20.1717 10.579 20.2056 10.4392C21.2067 6.4374 19.1567 3.24444 16.0856 2.29582C12.7742 1.27181 9.30414 3.21303 8.37541 6.62744C8.18289 7.33734 8.11204 8.06294 8.16441 8.79796C8.19675 9.25186 8.07045 9.60209 7.56989 9.60523C7.08012 9.60995 6.95536 9.255 6.92302 8.8121C6.63038 4.68936 9.87401 0.91686 13.8523 0.758233C18.1417 0.587041 21.661 3.93706 21.6857 8.20115C21.6903 8.98957 21.5902 9.76229 21.4485 10.5319C21.4007 10.7957 21.3653 10.9952 21.5763 11.2386C22.7746 12.6176 22.3264 14.7645 20.5921 15.4587C19.7866 15.7807 19.2969 16.2315 18.9334 16.9743C18.767 17.3151 18.4621 17.5869 18.2187 17.8884C17.826 18.3737 17.9199 19.3192 18.3743 19.7244C18.7393 20.0511 19.0566 20.4343 19.4231 20.7578C19.8298 21.1175 19.8636 21.4913 19.705 22.0096C18.4867 25.9862 17.2992 29.9723 16.1025 33.9553C16.0671 34.0747 16.0332 34.194 16.1025 34.3762C17.2654 32.8716 18.3835 31.3277 19.6095 29.8797C20.2564 29.1164 20.4612 28.3939 20.0608 27.483C19.7019 26.6679 19.8005 25.9517 20.5798 25.4491C21.6441 24.7659 21.6318 23.8251 21.3237 22.7383C21.1928 22.2766 20.8524 21.7002 21.3515 21.2761C21.8258 20.874 22.3279 21.2541 22.7931 21.4206C24.0822 21.8808 25.1264 22.7038 25.9997 23.7607C26.3001 24.1236 26.5388 24.524 26.0567 24.9041C25.6008 25.2622 25.3159 24.9135 25.0417 24.5743C24.3995 23.7765 23.6248 23.1561 22.5482 22.765H22.5497ZM12.9883 37.12C12.7896 36.8373 12.6818 36.6692 12.5616 36.5122C10.9829 34.4594 9.452 32.3675 7.80246 30.376C7.06163 29.4808 6.75668 28.6405 7.24184 27.5662C7.54679 26.8909 7.35581 26.3726 6.79056 25.9533C5.83873 25.2496 5.42904 24.3811 5.98813 23.2111C6.04819 23.0838 6.01893 22.9126 6.03279 22.743C3.83341 23.555 2.0699 26.1197 2.02369 28.6672C1.97595 31.3026 2.01599 33.938 2.00213 36.575C2.00059 36.9551 2.06836 37.1498 2.50115 37.1294C3.19115 37.0964 3.88424 37.098 4.57424 37.1294C4.98547 37.1483 5.0979 36.9959 5.0902 36.5923C5.06864 35.3924 5.08866 34.1909 5.07942 32.991C5.07634 32.5277 5.15951 32.1115 5.70781 32.1193C6.25766 32.1256 6.31927 32.5543 6.31618 33.0114C6.30848 34.1862 6.32697 35.361 6.30694 36.5342C6.29924 36.9457 6.37625 37.1373 6.84293 37.1326C8.83901 37.109 10.8351 37.1216 12.9929 37.1216L12.9883 37.12ZM10.0018 12.8704C10.0018 13.2615 9.9926 13.6542 10.0034 14.0452C10.0665 16.255 11.7222 18.0627 13.8846 18.292C16.0286 18.5198 17.9908 17.0686 18.4821 14.887C18.7378 13.7515 18.5714 12.5972 18.5961 11.4522C18.6053 11.0156 18.3265 10.802 17.903 10.7863C17.1006 10.7565 16.4152 10.4455 15.8314 9.88951C15.6897 9.75444 15.5634 9.53299 15.337 9.78585C14.4237 10.8051 13.2254 10.8099 12.001 10.7926C9.79546 10.7627 9.99876 10.6041 10.0018 12.8704ZM11.9163 19.0396C11.7068 19.9333 11.8547 20.6071 12.6325 21.0908C13.2362 21.4662 13.6736 22.3535 14.3236 22.3284C14.9628 22.3033 15.4048 21.4363 16.0116 21.0657C16.8233 20.5709 16.8618 19.8909 16.6924 19.0239C15.0798 19.7621 13.4904 19.7213 11.9148 19.0396H11.9163ZM14.4021 27.1579H14.2081C14.0125 28.3562 13.9185 29.5828 13.5951 30.7435C13.133 32.4036 13.763 33.8171 14.3251 35.295C14.6393 34.2584 15.2785 33.2737 15.1907 32.2041C15.0521 30.511 14.6763 28.84 14.4021 27.1579ZM11.0846 24.8853C11.7346 24.4157 12.3075 23.9838 12.8989 23.5801C13.2177 23.3618 13.2409 23.2095 12.922 22.9566C12.2767 22.443 11.6606 21.8918 11.0276 21.3625C10.8582 21.2196 10.6965 21.0044 10.4408 21.2526C10.2483 21.4395 10.0758 21.6185 10.1713 21.9248C10.4701 22.8875 10.7658 23.8518 11.0846 24.8853ZM17.541 24.8397C17.8475 23.8314 18.1741 22.8498 18.4374 21.8509C18.5468 21.4379 18.0555 20.9997 17.7752 21.2227C16.9712 21.8651 16.2072 22.5593 15.4279 23.233C15.9962 23.9115 16.7633 24.3183 17.541 24.8382V24.8397ZM12.4492 29.4211L12.5801 29.3944C12.6972 28.6609 12.7773 27.918 12.9451 27.1956C13.0591 26.7056 12.9205 26.3412 12.6356 25.9878C12.5016 25.8213 12.4138 25.4962 12.1258 25.7067C11.8809 25.8857 11.4265 25.9737 11.5482 26.4181C11.8223 27.4265 12.1458 28.4206 12.4477 29.4211H12.4492ZM16.0255 29.3912L16.1703 29.3802C16.4475 28.4724 16.6955 27.5552 17.0143 26.6632C17.2022 26.1402 16.8818 25.9658 16.5676 25.7475C16.1318 25.4444 16.0717 25.8999 15.9007 26.104C15.662 26.3899 15.565 26.6946 15.6543 27.0998C15.8191 27.8536 15.9069 28.6264 16.0255 29.3912ZM8.76662 14.4065C8.76662 13.7955 8.75738 13.2568 8.7697 12.7197C8.77894 12.3396 8.72811 12.0176 8.25528 12.0475C7.80862 12.0757 7.51753 12.3176 7.55295 12.7951C7.6084 13.5426 7.92722 14.1175 8.76508 14.4065H8.76662ZM19.8375 14.4096C20.6661 14.1096 20.9911 13.5395 21.0511 12.7935C21.0896 12.316 20.7955 12.0757 20.3488 12.0475C19.879 12.0176 19.8236 12.3349 19.8328 12.7181C19.8467 13.2552 19.8359 13.7939 19.8359 14.4096H19.8375ZM14.3036 24.1157C13.9863 24.3858 13.5566 24.4754 13.4349 24.8664C13.3517 25.135 14.1003 25.8779 14.3652 25.8276C14.8688 25.7334 15.0968 25.2339 15.1322 24.8853C15.1722 24.4848 14.6008 24.3764 14.3051 24.1157H14.3036Z" fill="url(#paint0_linear_175_1165)"/>
<path d="M29.6425 26.4724C28.2887 26.3703 27.1659 27.1556 25.9353 27.5623C25.5071 27.7037 25.8444 27.966 25.9045 28.1105C26.3912 29.2868 26.844 30.4836 27.4354 31.6065C28.0407 32.7562 27.8697 33.7724 27.1643 34.7398C26.4312 35.745 25.3669 36.0026 24.2133 35.8267C22.2604 35.5267 21.2577 33.5745 22.0663 31.7228C22.5761 30.5558 23.069 29.3826 23.5973 28.2251C23.7836 27.8152 23.8483 27.5482 23.3062 27.3974C23.0228 27.3189 22.7594 27.1163 22.5268 26.92C22.2542 26.6891 22.2219 26.3828 22.4498 26.086C22.6485 25.8269 22.9396 25.7216 23.1968 25.9101C24.3982 26.7928 25.5641 26.4472 26.7439 25.874C27.0658 25.7169 27.4031 25.541 27.7481 25.4986C28.6876 25.3824 29.3052 25.0714 29.0911 23.9218C29.0295 23.5904 29.3067 23.3359 29.6717 23.3359C30.0707 23.3359 30.3525 23.6029 30.2786 23.9767C30.0645 25.0588 30.6236 25.3196 31.52 25.4766C32.1607 25.5897 32.7598 25.9462 33.3774 26.1959C34.2861 26.5635 35.1748 26.5823 36.0158 26.0075C36.3746 25.7625 36.6904 25.7578 36.9445 26.13C37.214 26.5258 36.9999 26.8147 36.695 27.0645C36.6349 27.1132 36.5718 27.1603 36.5055 27.1964C36.1975 27.3629 35.6353 27.5152 35.6292 27.6895C35.6169 28.0681 35.8787 28.4607 36.0435 28.8408C36.467 29.8177 36.809 30.8464 37.348 31.7526C38.2552 33.2776 36.9984 35.6225 35.1117 35.8518C33.3697 36.0638 32.0452 35.1686 31.6124 33.43C31.4922 32.9478 31.54 32.5175 31.7418 32.0683C32.3286 30.7663 32.8769 29.4454 33.4714 28.1482C33.6547 27.7477 33.6023 27.6126 33.1757 27.4634C32.0221 27.0582 30.9501 26.3797 29.6456 26.4692L29.6425 26.4724ZM24.7709 28.6507C24.2703 29.7941 23.8483 30.7553 23.4278 31.7181C23.3139 31.9803 23.397 32.1013 23.682 32.0997C24.506 32.095 25.33 32.0981 26.2679 32.0981C25.7597 30.9265 25.3084 29.8883 24.7709 28.6507ZM36.102 32.1028C35.5907 30.9328 35.1271 29.8726 34.5973 28.6586C34.1059 29.7847 33.7086 30.7129 33.2958 31.6332C33.1618 31.9332 33.1279 32.1154 33.5515 32.106C34.3601 32.0903 35.1702 32.1013 36.1005 32.1013L36.102 32.1028ZM23.0644 33.3923C23.4972 34.3252 24.0532 34.6833 24.9187 34.5985C25.6411 34.5278 26.2264 34.2388 26.4558 33.3923H23.0644ZM36.2915 33.397H32.8984C33.1556 34.231 33.7224 34.5435 34.4571 34.6032C35.3381 34.6754 35.8879 34.3205 36.293 33.397H36.2915Z" fill="url(#paint1_linear_175_1165)"/>
<path d="M29.0618 32.4969C29.0618 31.2169 29.0648 29.9369 29.0602 28.6569C29.0587 28.1826 29.0879 27.7083 29.704 27.7271C30.2616 27.7444 30.2955 28.1857 30.2939 28.6333C30.2893 31.2185 30.3078 33.8052 30.2785 36.3904C30.2723 36.962 30.394 37.1913 30.9901 37.1317C31.5476 37.0767 32.1159 37.116 32.6797 37.1222C33.1017 37.1269 33.3758 37.328 33.3604 37.7819C33.345 38.1934 33.0801 38.3724 32.692 38.3724C30.6944 38.3724 28.6967 38.3724 26.6976 38.3724C26.2786 38.3724 25.9876 38.1902 25.9983 37.7332C26.0076 37.2762 26.311 37.1128 26.7253 37.1191C26.8531 37.1207 26.9825 37.1269 27.1088 37.1175C27.7387 37.0657 28.5627 37.4049 28.9493 36.9762C29.3267 36.5584 29.0448 35.7307 29.0587 35.0821C29.0772 34.2198 29.0633 33.3592 29.0633 32.4969H29.0618Z" fill="url(#paint2_linear_175_1165)"/>
</g>
</g>
<defs>
<linearGradient id="paint0_linear_175_1165" x1="0.550606" y1="5.28354" x2="30.4793" y2="9.59578" gradientUnits="userSpaceOnUse">
<stop stop-color="#FF0700"/>
<stop offset="1" stop-color="#FD6C1D"/>
</linearGradient>
<linearGradient id="paint1_linear_175_1165" x1="21.653" y1="24.8468" x2="39.3369" y2="29.5885" gradientUnits="userSpaceOnUse">
<stop stop-color="#FF0700"/>
<stop offset="1" stop-color="#FD6C1D"/>
</linearGradient>
<linearGradient id="paint2_linear_175_1165" x1="25.9367" y1="29.0086" x2="34.5491" y2="30.2717" gradientUnits="userSpaceOnUse">
<stop stop-color="#FF0700"/>
<stop offset="1" stop-color="#FD6C1D"/>
</linearGradient>
<clipPath id="clip0_175_1165">
<rect width="40" height="40" fill="white" transform="translate(0.00976562)"/>
</clipPath>
<clipPath id="clip1_175_1165">
<rect width="36.8797" height="37.6324" fill="white" transform="translate(0.759766 0.751953)"/>
</clipPath>
</defs>
</svg>
