<svg width="24" height="24" viewBox="0 0 24 24" fill="none" xmlns="http://www.w3.org/2000/svg">
<path d="M12.0575 23.5074C5.85076 23.4935 0.69162 18.3403 0.712957 12.1763C0.734293 5.89438 5.88917 0.746613 12.1162 0.787349C18.3592 0.828086 23.4384 5.95441 23.433 12.2074C23.4277 18.38 18.2525 23.5213 12.0586 23.5074H12.0575ZM21.1319 12.201C21.1319 7.15613 17.1132 3.10931 12.0917 3.09859C7.0488 3.08787 3.00555 7.14755 3.01302 12.2149C3.01942 17.1579 7.07334 21.1854 12.0522 21.1962C17.0513 21.2069 21.1308 17.1654 21.1308 12.201H21.1319Z" fill="url(#paint0_linear_175_10647)"/>
<path d="M12.0575 23.5074C5.85076 23.4935 0.69162 18.3403 0.712957 12.1763C0.734293 5.89438 5.88917 0.746613 12.1162 0.787349C18.3592 0.828086 23.4384 5.95441 23.433 12.2074C23.4277 18.38 18.2525 23.5213 12.0586 23.5074H12.0575ZM21.1319 12.201C21.1319 7.15613 17.1132 3.10931 12.0917 3.09859C7.0488 3.08787 3.00555 7.14755 3.01302 12.2149C3.01942 17.1579 7.07334 21.1854 12.0522 21.1962C17.0513 21.2069 21.1308 17.1654 21.1308 12.201H21.1319Z" fill="white"/>
<path d="M17.6138 8.98225C17.6255 9.32958 17.474 9.60401 17.2404 9.83878C15.2102 11.8799 13.1854 13.9253 11.1446 15.9556C10.4682 16.6289 9.67771 16.6214 8.98748 15.9546C8.28551 15.2749 7.59741 14.5803 6.91998 13.8759C6.41004 13.3475 6.39617 12.6774 6.85384 12.2101C7.32324 11.7298 8.00174 11.7545 8.55115 12.2851C8.97254 12.6925 9.39607 13.0998 9.78759 13.5351C10.018 13.7902 10.1471 13.7462 10.369 13.5211C12.0898 11.7737 13.8255 10.0425 15.5527 8.30045C15.9303 7.91989 16.3421 7.69477 16.8841 7.91453C17.3609 8.10749 17.6031 8.46769 17.6138 8.98332V8.98225Z" fill="url(#paint1_linear_175_10647)"/>
<path d="M17.6138 8.98225C17.6255 9.32958 17.474 9.60401 17.2404 9.83878C15.2102 11.8799 13.1854 13.9253 11.1446 15.9556C10.4682 16.6289 9.67771 16.6214 8.98748 15.9546C8.28551 15.2749 7.59741 14.5803 6.91998 13.8759C6.41004 13.3475 6.39617 12.6774 6.85384 12.2101C7.32324 11.7298 8.00174 11.7545 8.55115 12.2851C8.97254 12.6925 9.39607 13.0998 9.78759 13.5351C10.018 13.7902 10.1471 13.7462 10.369 13.5211C12.0898 11.7737 13.8255 10.0425 15.5527 8.30045C15.9303 7.91989 16.3421 7.69477 16.8841 7.91453C17.3609 8.10749 17.6031 8.46769 17.6138 8.98332V8.98225Z" fill="white"/>
<defs>
<linearGradient id="paint0_linear_175_10647" x1="0.523557" y1="3.52315" x2="26.5026" y2="9.03226" gradientUnits="userSpaceOnUse">
<stop stop-color="#FF0700"/>
<stop offset="1" stop-color="#FD6C1D"/>
</linearGradient>
<linearGradient id="paint1_linear_175_10647" x1="6.43101" y1="8.86731" x2="18.7668" y2="12.2294" gradientUnits="userSpaceOnUse">
<stop stop-color="#FF0700"/>
<stop offset="1" stop-color="#FD6C1D"/>
</linearGradient>
</defs>
</svg>
